<?xml version="1.0" encoding="UTF-8" standalone="no"?>
<!-- Converted with SVG Converter - Version 0.9.5 (Compiled Mon May 30 09:18:17 2011) - Copyright (C) 2011 Nokia -->

<svg
   xmlns:dc="http://purl.org/dc/elements/1.1/"
   xmlns:cc="http://creativecommons.org/ns#"
   xmlns:rdf="http://www.w3.org/1999/02/22-rdf-syntax-ns#"
   xmlns:svg="http://www.w3.org/2000/svg"
   xmlns="http://www.w3.org/2000/svg"
   xmlns:xlink="http://www.w3.org/1999/xlink"
   xmlns:sodipodi="http://sodipodi.sourceforge.net/DTD/sodipodi-0.dtd"
   xmlns:inkscape="http://www.inkscape.org/namespaces/inkscape"
   width="96"
   version="1.1"
   height="96"
   viewBox="0 0 96 96"
   id="svg2"
   inkscape:version="0.48.2 r9819"
   sodipodi:docname="symbian.svg">
  <metadata
     id="metadata36">
    <rdf:RDF>
      <cc:Work
         rdf:about="">
        <dc:format>image/svg+xml</dc:format>
        <dc:type
           rdf:resource="http://purl.org/dc/dcmitype/StillImage" />
      </cc:Work>
    </rdf:RDF>
  </metadata>
  <sodipodi:namedview
     pagecolor="#ffffff"
     bordercolor="#666666"
     borderopacity="1"
     objecttolerance="10"
     gridtolerance="10"
     guidetolerance="10"
     inkscape:pageopacity="0"
     inkscape:pageshadow="2"
     inkscape:window-width="732"
     inkscape:window-height="630"
     id="namedview34"
     showgrid="false"
     inkscape:zoom="2.95"
     inkscape:cx="40"
     inkscape:cy="40"
     inkscape:window-x="41"
     inkscape:window-y="278"
     inkscape:window-maximized="0"
     inkscape:current-layer="svg2" />
  <defs
     id="defs4">
    <linearGradient
       id="hicg_overlay_grad"
       y1="5.1816001"
       x1="39.9995"
       y2="58.801899"
       gradientUnits="userSpaceOnUse"
       x2="39.9995">
      <stop
         offset="0"
         style="stop-color:#FFFFFF"
         id="stop7" />
      <stop
         offset="1"
         style="stop-color:#000000"
         id="stop9" />
    </linearGradient>
    <linearGradient
       inkscape:collect="always"
       xlink:href="#hicg_overlay_grad"
       id="linearGradient3014"
       gradientUnits="userSpaceOnUse"
       x1="39.9995"
       y1="5.1816001"
       x2="39.9995"
       y2="58.801899"
       gradientTransform="translate(8,8)" />
  </defs>
  <path
     style="fill:#5aa02c"
     inkscape:connector-curvature="0"
     d="M 87,48 C 87,76.893 76.895,87 48,87 19.105,87 9,76.893 9,48 9,19.106 19.105,9 48,9 76.895,9 87,19.106 87,48 z"
     id="hicg_background" />
  <path
     style="fill:#ffffff;fill-opacity:0.25;stroke-opacity:0.25"
     inkscape:connector-curvature="0"
     d="M 47.999,9 C 19.105,9 9,19.106 9,48 9,76.893 19.105,87 47.999,87 76.896,87 87,76.893 87,48 87,19.106 76.896,9 47.999,9 z m 0,77.025 C 19.57,86.025 9.976,76.43 9.976,48 c 0,-28.429 9.595,-38.024 38.023,-38.024 28.43,0 38.024,9.596 38.024,38.024 0,28.43 -9.594,38.025 -38.024,38.025 z"
     id="hicg_highlight" />
  <path
     style="fill:url(#linearGradient3014);fill-opacity:0.4;stroke-opacity:0.4"
     inkscape:connector-curvature="0"
     d="M 86.977,48 C 86.977,76.893 76.877,87 48,87 19.123,87 9.023,76.893 9.023,48 9.023,19.106 19.123,9 48,9 76.877,9 86.977,19.106 86.977,48 z"
     id="hicg_overlay" />
  <g
     transform="matrix(1.75,0,0,1.75,20,20)"
     id="g16">
    <path
       d="M 4,25 V 17 H 3 V 14 L 18,6 h 12 v 3 l -1,1 v 7 L 16,25 H 4 z"
       stroke-miterlimit="4"
       id="path18"
       inkscape:connector-curvature="0"
       style="fill:#b3b3b3;fill-rule:evenodd;stroke:#ffffff;stroke-width:3;stroke-linecap:round;stroke-linejoin:round;stroke-miterlimit:4;stroke-dasharray:none" />
    <path
       d="M 16,17 29,9 v 8 l -13,8 v -8 z"
       stroke-miterlimit="4"
       id="path20"
       inkscape:connector-curvature="0"
       style="fill:#ffffff;fill-rule:evenodd;stroke:#000000;stroke-width:1;stroke-linecap:round;stroke-linejoin:round;stroke-miterlimit:4;stroke-dasharray:none" />
    <path
       d="m 4,17 h 12 v 8 H 4 v -8 z"
       stroke-miterlimit="4"
       id="path22"
       inkscape:connector-curvature="0"
       style="fill:#ffffff;fill-rule:evenodd;stroke:#000000;stroke-width:1;stroke-linecap:round;stroke-linejoin:round;stroke-miterlimit:4;stroke-dasharray:none" />
    <path
       d="M 3,14 18,6 H 30 L 17,14 H 3 z"
       stroke-miterlimit="4"
       id="path24"
       inkscape:connector-curvature="0"
       style="fill:#5aa02c;fill-rule:evenodd;stroke:#000000;stroke-width:1;stroke-linecap:round;stroke-linejoin:round;stroke-miterlimit:4;stroke-dasharray:none" />
    <path
       d="m 3,17 v -3 h 14 v 3 H 3 z"
       stroke-miterlimit="4"
       id="path26"
       inkscape:connector-curvature="0"
       style="fill:#5aa02c;fill-rule:evenodd;stroke:#000000;stroke-width:1;stroke-linecap:round;stroke-linejoin:round;stroke-miterlimit:4;stroke-dasharray:none" />
    <path
       d="M 17,17 30,9 V 6 l -13,8 v 3 z"
       stroke-miterlimit="4"
       id="path28"
       inkscape:connector-curvature="0"
       style="fill:#5aa02c;fill-rule:evenodd;stroke:#000000;stroke-width:1;stroke-linecap:round;stroke-linejoin:round;stroke-miterlimit:4;stroke-dasharray:none" />
    <path
       d="m 5.5824,16.996 0.9392,2.291 h 6.5744 l 0.939,-2.291 H 5.5824 z"
       stroke-miterlimit="4"
       id="path30"
       inkscape:connector-curvature="0"
       style="fill:#5aa02c;fill-rule:evenodd;stroke:#000000;stroke-width:1;stroke-linecap:round;stroke-linejoin:round;stroke-miterlimit:4;stroke-dasharray:none" />
    <path
       d="M 8,13 19,7 h 7 L 16,13 H 8 z"
       id="path32"
       inkscape:connector-curvature="0"
       style="fill:#217821;fill-rule:evenodd" />
  </g>
</svg>
