<?xml version="1.0" encoding="UTF-8" standalone="no"?>
<!-- Created with Inkscape (http://www.inkscape.org/) -->

<svg
   xmlns:dc="http://purl.org/dc/elements/1.1/"
   xmlns:cc="http://creativecommons.org/ns#"
   xmlns:rdf="http://www.w3.org/1999/02/22-rdf-syntax-ns#"
   xmlns:svg="http://www.w3.org/2000/svg"
   xmlns="http://www.w3.org/2000/svg"
   xmlns:sodipodi="http://sodipodi.sourceforge.net/DTD/sodipodi-0.dtd"
   xmlns:inkscape="http://www.inkscape.org/namespaces/inkscape"
   width="32"
   height="32"
   id="svg2"
   version="1.1"
   inkscape:version="0.47 r22583"
   sodipodi:docname="att_rappelling.svg"
   inkscape:export-filename="/home/tharbaum/maemo/gpxview/trunk/data/icons/32x32/att_rappelling.png"
   inkscape:export-xdpi="90"
   inkscape:export-ydpi="90">
  <defs
     id="defs4">
    <inkscape:perspective
       sodipodi:type="inkscape:persp3d"
       inkscape:vp_x="0 : 526.18109 : 1"
       inkscape:vp_y="0 : 1000 : 0"
       inkscape:vp_z="744.09448 : 526.18109 : 1"
       inkscape:persp3d-origin="372.04724 : 350.78739 : 1"
       id="perspective10" />
    <inkscape:perspective
       id="perspective2882"
       inkscape:persp3d-origin="0.5 : 0.33333333 : 1"
       inkscape:vp_z="1 : 0.5 : 1"
       inkscape:vp_y="0 : 1000 : 0"
       inkscape:vp_x="0 : 0.5 : 1"
       sodipodi:type="inkscape:persp3d" />
    <inkscape:perspective
       id="perspective3682"
       inkscape:persp3d-origin="0.5 : 0.33333333 : 1"
       inkscape:vp_z="1 : 0.5 : 1"
       inkscape:vp_y="0 : 1000 : 0"
       inkscape:vp_x="0 : 0.5 : 1"
       sodipodi:type="inkscape:persp3d" />
    <inkscape:perspective
       id="perspective3704"
       inkscape:persp3d-origin="0.5 : 0.33333333 : 1"
       inkscape:vp_z="1 : 0.5 : 1"
       inkscape:vp_y="0 : 1000 : 0"
       inkscape:vp_x="0 : 0.5 : 1"
       sodipodi:type="inkscape:persp3d" />
    <inkscape:perspective
       id="perspective3726"
       inkscape:persp3d-origin="0.5 : 0.33333333 : 1"
       inkscape:vp_z="1 : 0.5 : 1"
       inkscape:vp_y="0 : 1000 : 0"
       inkscape:vp_x="0 : 0.5 : 1"
       sodipodi:type="inkscape:persp3d" />
    <inkscape:perspective
       id="perspective3748"
       inkscape:persp3d-origin="0.5 : 0.33333333 : 1"
       inkscape:vp_z="1 : 0.5 : 1"
       inkscape:vp_y="0 : 1000 : 0"
       inkscape:vp_x="0 : 0.5 : 1"
       sodipodi:type="inkscape:persp3d" />
    <inkscape:perspective
       id="perspective2866"
       inkscape:persp3d-origin="0.5 : 0.33333333 : 1"
       inkscape:vp_z="1 : 0.5 : 1"
       inkscape:vp_y="0 : 1000 : 0"
       inkscape:vp_x="0 : 0.5 : 1"
       sodipodi:type="inkscape:persp3d" />
  </defs>
  <sodipodi:namedview
     id="base"
     pagecolor="#000000"
     bordercolor="#666666"
     borderopacity="1.0"
     inkscape:pageopacity="0"
     inkscape:pageshadow="2"
     inkscape:zoom="19.710602"
     inkscape:cx="16"
     inkscape:cy="16"
     inkscape:document-units="px"
     inkscape:current-layer="layer1"
     showgrid="true"
     objecttolerance="20"
     inkscape:window-width="938"
     inkscape:window-height="904"
     inkscape:window-x="186"
     inkscape:window-y="65"
     inkscape:window-maximized="0"
     inkscape:snap-grids="false">
    <inkscape:grid
       type="xygrid"
       id="grid2818"
       empspacing="5"
       visible="true"
       enabled="true"
       snapvisiblegridlinesonly="true" />
  </sodipodi:namedview>
  <metadata
     id="metadata7">
    <rdf:RDF>
      <cc:Work
         rdf:about="">
        <dc:format>image/svg+xml</dc:format>
        <dc:type
           rdf:resource="http://purl.org/dc/dcmitype/StillImage" />
        <dc:title></dc:title>
      </cc:Work>
    </rdf:RDF>
  </metadata>
  <g
     inkscape:label="Layer 1"
     inkscape:groupmode="layer"
     id="layer1"
     transform="translate(0,-1020.3622)">
    <rect
       style="fill:#000000;fill-opacity:1;stroke:#ffffff;stroke-width:2;stroke-linecap:round;stroke-linejoin:round;stroke-miterlimit:4;stroke-opacity:1;stroke-dasharray:none;stroke-dashoffset:1.19999999999999996"
       id="rect2816"
       width="30"
       height="30"
       x="1"
       y="-15"
       transform="translate(0,1036.3622)"
       rx="2"
       ry="2" />
    <path
       sodipodi:type="arc"
       style="fill:#ffffff;fill-opacity:1;stroke:#ffffff;stroke-opacity:1"
       id="path2872"
       sodipodi:cx="14.509957"
       sodipodi:cy="8.9920778"
       sodipodi:rx="1.8264282"
       sodipodi:ry="1.7503271"
       d="m 16.336385,8.9920778 a 1.8264282,1.7503271 0 1 1 -3.652856,0 1.8264282,1.7503271 0 1 1 3.652856,0 z"
       transform="translate(-1.7756941,1018.6372)" />
    <path
       style="fill:#ffffff;stroke:#ffffff;stroke-width:1px;stroke-linecap:butt;stroke-linejoin:miter;stroke-opacity:1;fill-opacity:1"
       d="M 20.445849,27.078791 C 18.070258,23.374709 13.754407,21.760136 9.6902165,19.874546 9.1030956,19.5846 9.7257689,17.83506 9.3858118,16.576828 l 1.4712892,-4.667539 -3.6021222,2.232302 4.0587292,2.790376 -0.913214,1.166885 C 8.8561467,16.859588 7.0399822,16.231914 5.9866259,13.88792 7.1767646,12.70295 8.1484649,11.493708 10.501962,10.438 c 1.210207,-0.07012 1.871768,0.150404 3.348452,0.558075 1.428487,-0.626899 2.035452,-0.221333 2.485972,-2.5367056 0.780316,-4.6214264 1.014185,-4.3248342 1.268353,-4.2109317 l 0.25367,5.1241458 C 17.9958,9.8553364 16.331183,11.648641 13.495275,14.293793 l -0.152202,2.232301 c 1.602059,-0.703495 3.142389,-1.314398 4.210932,-1.217619 3.101441,1.437467 3.849583,2.874933 5.631487,4.3124 l -1.065417,0.507342 -5.327082,-2.739642 c -1.3224,0.39406 -1.359169,1.917093 -1.674226,2.688907 2.830079,1.503152 4.244651,3.47814 6.341765,5.225614 l -1.014683,1.775695 z"
       id="path3648"
       transform="translate(0,1020.3622)"
       sodipodi:nodetypes="cccccccccccccccccccccc" />
    <rect
       style="fill:#ffffff;fill-opacity:1;stroke:#ffffff;stroke-opacity:1"
       id="rect3650"
       width="0.35513881"
       height="9.1828756"
       x="10.299026"
       y="1039.5771"
       rx="2"
       ry="2" />
    <path
       style="fill:#ffffff;stroke:#ffffff;stroke-width:1px;stroke-linecap:butt;stroke-linejoin:miter;stroke-opacity:1;fill-opacity:1"
       d="m 18.923826,3.2337553 7.711586,0.050734 c 1.22305,-0.038044 2.149229,0.3395306 2.029364,2.1815671 L 28.512574,27.028056 c -0.09152,1.528 -1.003808,1.766208 -2.029365,1.826429 l -7.457915,-0.05073 1.572758,-6.189563 3.196249,-5.225614 L 22.982555,13.634249 21.562,13.279111 20.800988,5.8719294 16.945195,4.6035765 18.923826,3.2337553 z"
       id="path3652"
       transform="translate(0,1020.3622)"
       sodipodi:nodetypes="ccccccccccccc" />
  </g>
</svg>
