<?xml version="1.0" encoding="UTF-8" standalone="no"?>
<!-- Created with Inkscape (http://www.inkscape.org/) -->

<svg
   xmlns:dc="http://purl.org/dc/elements/1.1/"
   xmlns:cc="http://creativecommons.org/ns#"
   xmlns:rdf="http://www.w3.org/1999/02/22-rdf-syntax-ns#"
   xmlns:svg="http://www.w3.org/2000/svg"
   xmlns="http://www.w3.org/2000/svg"
   xmlns:sodipodi="http://sodipodi.sourceforge.net/DTD/sodipodi-0.dtd"
   xmlns:inkscape="http://www.inkscape.org/namespaces/inkscape"
   width="32"
   height="32"
   id="svg2"
   version="1.1"
   inkscape:version="0.47 r22583"
   sodipodi:docname="att_quad.svg"
   inkscape:export-filename="/home/tharbaum/maemo/gpxview/trunk/data/icons/32x32/att_quad.png"
   inkscape:export-xdpi="90"
   inkscape:export-ydpi="90">
  <defs
     id="defs4">
    <inkscape:perspective
       sodipodi:type="inkscape:persp3d"
       inkscape:vp_x="0 : 526.18109 : 1"
       inkscape:vp_y="0 : 1000 : 0"
       inkscape:vp_z="744.09448 : 526.18109 : 1"
       inkscape:persp3d-origin="372.04724 : 350.78739 : 1"
       id="perspective10" />
    <inkscape:perspective
       id="perspective2882"
       inkscape:persp3d-origin="0.5 : 0.33333333 : 1"
       inkscape:vp_z="1 : 0.5 : 1"
       inkscape:vp_y="0 : 1000 : 0"
       inkscape:vp_x="0 : 0.5 : 1"
       sodipodi:type="inkscape:persp3d" />
    <inkscape:perspective
       id="perspective3682"
       inkscape:persp3d-origin="0.5 : 0.33333333 : 1"
       inkscape:vp_z="1 : 0.5 : 1"
       inkscape:vp_y="0 : 1000 : 0"
       inkscape:vp_x="0 : 0.5 : 1"
       sodipodi:type="inkscape:persp3d" />
    <inkscape:perspective
       id="perspective3704"
       inkscape:persp3d-origin="0.5 : 0.33333333 : 1"
       inkscape:vp_z="1 : 0.5 : 1"
       inkscape:vp_y="0 : 1000 : 0"
       inkscape:vp_x="0 : 0.5 : 1"
       sodipodi:type="inkscape:persp3d" />
    <inkscape:perspective
       id="perspective3726"
       inkscape:persp3d-origin="0.5 : 0.33333333 : 1"
       inkscape:vp_z="1 : 0.5 : 1"
       inkscape:vp_y="0 : 1000 : 0"
       inkscape:vp_x="0 : 0.5 : 1"
       sodipodi:type="inkscape:persp3d" />
    <inkscape:perspective
       id="perspective3748"
       inkscape:persp3d-origin="0.5 : 0.33333333 : 1"
       inkscape:vp_z="1 : 0.5 : 1"
       inkscape:vp_y="0 : 1000 : 0"
       inkscape:vp_x="0 : 0.5 : 1"
       sodipodi:type="inkscape:persp3d" />
    <inkscape:perspective
       id="perspective2887"
       inkscape:persp3d-origin="0.5 : 0.33333333 : 1"
       inkscape:vp_z="1 : 0.5 : 1"
       inkscape:vp_y="0 : 1000 : 0"
       inkscape:vp_x="0 : 0.5 : 1"
       sodipodi:type="inkscape:persp3d" />
    <inkscape:perspective
       id="perspective3675"
       inkscape:persp3d-origin="0.5 : 0.33333333 : 1"
       inkscape:vp_z="1 : 0.5 : 1"
       inkscape:vp_y="0 : 1000 : 0"
       inkscape:vp_x="0 : 0.5 : 1"
       sodipodi:type="inkscape:persp3d" />
    <inkscape:perspective
       id="perspective3697"
       inkscape:persp3d-origin="0.5 : 0.33333333 : 1"
       inkscape:vp_z="1 : 0.5 : 1"
       inkscape:vp_y="0 : 1000 : 0"
       inkscape:vp_x="0 : 0.5 : 1"
       sodipodi:type="inkscape:persp3d" />
    <inkscape:perspective
       id="perspective3697-6"
       inkscape:persp3d-origin="0.5 : 0.33333333 : 1"
       inkscape:vp_z="1 : 0.5 : 1"
       inkscape:vp_y="0 : 1000 : 0"
       inkscape:vp_x="0 : 0.5 : 1"
       sodipodi:type="inkscape:persp3d" />
    <inkscape:perspective
       id="perspective3741"
       inkscape:persp3d-origin="0.5 : 0.33333333 : 1"
       inkscape:vp_z="1 : 0.5 : 1"
       inkscape:vp_y="0 : 1000 : 0"
       inkscape:vp_x="0 : 0.5 : 1"
       sodipodi:type="inkscape:persp3d" />
  </defs>
  <sodipodi:namedview
     id="base"
     pagecolor="#000000"
     bordercolor="#666666"
     borderopacity="1.0"
     inkscape:pageopacity="0"
     inkscape:pageshadow="2"
     inkscape:zoom="19.710602"
     inkscape:cx="16"
     inkscape:cy="16"
     inkscape:document-units="px"
     inkscape:current-layer="layer1"
     showgrid="true"
     objecttolerance="20"
     inkscape:window-width="970"
     inkscape:window-height="904"
     inkscape:window-x="154"
     inkscape:window-y="65"
     inkscape:window-maximized="0"
     inkscape:snap-grids="false">
    <inkscape:grid
       type="xygrid"
       id="grid2818"
       empspacing="5"
       visible="true"
       enabled="true"
       snapvisiblegridlinesonly="true" />
  </sodipodi:namedview>
  <metadata
     id="metadata7">
    <rdf:RDF>
      <cc:Work
         rdf:about="">
        <dc:format>image/svg+xml</dc:format>
        <dc:type
           rdf:resource="http://purl.org/dc/dcmitype/StillImage" />
        <dc:title></dc:title>
      </cc:Work>
    </rdf:RDF>
  </metadata>
  <g
     inkscape:label="Layer 1"
     inkscape:groupmode="layer"
     id="layer1"
     transform="translate(0,-1020.3622)">
    <rect
       style="fill:#000000;fill-opacity:1;stroke:#ffffff;stroke-width:2;stroke-linecap:round;stroke-linejoin:round;stroke-miterlimit:4;stroke-opacity:1;stroke-dasharray:none;stroke-dashoffset:1.19999999999999996"
       id="rect2816"
       width="30"
       height="30"
       x="1"
       y="-15"
       transform="translate(0,1036.3622)"
       rx="2"
       ry="2" />
    <path
       sodipodi:type="arc"
       style="fill:#000000;fill-opacity:1;stroke:#ffffff;stroke-opacity:1"
       id="path2893-9-3"
       sodipodi:cx="7.660852"
       sodipodi:cy="22.208315"
       sodipodi:rx="3.2469835"
       sodipodi:ry="3.4499199"
       d="m 10.907835,22.208315 a 3.2469835,3.4499199 0 1 1 -6.4939666,0 3.2469835,3.4499199 0 1 1 6.4939666,0 z"
       transform="matrix(0.96699073,0.00884231,-0.01071374,1.0571637,4.194404,1017.5536)" />
    <path
       sodipodi:type="arc"
       style="fill:#000000;fill-opacity:1;stroke:#ffffff;stroke-opacity:1"
       id="path2893"
       sodipodi:cx="7.660852"
       sodipodi:cy="22.208315"
       sodipodi:rx="3.2469835"
       sodipodi:ry="3.4499199"
       d="m 10.907835,22.208315 a 3.2469835,3.4499199 0 1 1 -6.4939666,0 3.2469835,3.4499199 0 1 1 6.4939666,0 z"
       transform="matrix(0.96699073,0.00884231,-0.01071374,1.0571637,0.18640824,1018.9742)" />
    <path
       sodipodi:type="arc"
       style="fill:#000000;fill-opacity:1;stroke:#ffffff;stroke-opacity:1"
       id="path2893-2-2-1"
       sodipodi:cx="7.660852"
       sodipodi:cy="22.208315"
       sodipodi:rx="3.2469835"
       sodipodi:ry="3.4499199"
       d="m 10.907835,22.208315 a 3.2469835,3.4499199 0 1 1 -6.4939666,0 3.2469835,3.4499199 0 1 1 6.4939666,0 z"
       transform="matrix(0.79854117,0.00311523,-0.00249652,0.98685131,5.150179,1019.2606)" />
    <path
       sodipodi:type="arc"
       style="fill:#000000;fill-opacity:1;stroke:#ffffff;stroke-opacity:1"
       id="path2893-2"
       sodipodi:cx="7.660852"
       sodipodi:cy="22.208315"
       sodipodi:rx="3.2469835"
       sodipodi:ry="3.4499199"
       d="m 10.907835,22.208315 a 3.2469835,3.4499199 0 1 1 -6.4939666,0 3.2469835,3.4499199 0 1 1 6.4939666,0 z"
       transform="matrix(0.79854117,0.00311523,-0.00249652,0.98685131,1.142183,1020.6812)" />
    <path
       sodipodi:type="arc"
       style="fill:#000000;fill-opacity:1;stroke:#ffffff;stroke-opacity:1"
       id="path2893-9"
       sodipodi:cx="7.660852"
       sodipodi:cy="22.208315"
       sodipodi:rx="3.2469835"
       sodipodi:ry="3.4499199"
       d="m 10.907835,22.208315 a 3.2469835,3.4499199 0 1 1 -6.4939666,0 3.2469835,3.4499199 0 1 1 6.4939666,0 z"
       transform="matrix(0.96699073,0.00884231,-0.01071374,1.0571637,17.841881,1017.5029)" />
    <path
       sodipodi:type="arc"
       style="fill:#000000;fill-opacity:1;stroke:#ffffff;stroke-opacity:1"
       id="path2893-2-2"
       sodipodi:cx="7.660852"
       sodipodi:cy="22.208315"
       sodipodi:rx="3.2469835"
       sodipodi:ry="3.4499199"
       d="m 10.907835,22.208315 a 3.2469835,3.4499199 0 1 1 -6.4939666,0 3.2469835,3.4499199 0 1 1 6.4939666,0 z"
       transform="matrix(0.79854117,0.00311523,-0.00249652,0.98685131,18.797656,1019.2099)" />
    <path
       sodipodi:type="arc"
       style="fill:#000000;fill-opacity:1;stroke:#ffffff;stroke-opacity:1"
       id="path2893-6"
       sodipodi:cx="7.660852"
       sodipodi:cy="22.208315"
       sodipodi:rx="3.2469835"
       sodipodi:ry="3.4499199"
       d="m 10.907835,22.208315 a 3.2469835,3.4499199 0 1 1 -6.4939666,0 3.2469835,3.4499199 0 1 1 6.4939666,0 z"
       transform="matrix(0.96699073,0.00884231,-0.01071374,1.0571637,14.239759,1020.1918)" />
    <path
       sodipodi:type="arc"
       style="fill:#000000;fill-opacity:1;stroke:#ffffff;stroke-opacity:1"
       id="path2893-2-4"
       sodipodi:cx="7.660852"
       sodipodi:cy="22.208315"
       sodipodi:rx="3.2469835"
       sodipodi:ry="3.4499199"
       d="m 10.907835,22.208315 a 3.2469835,3.4499199 0 1 1 -6.4939666,0 3.2469835,3.4499199 0 1 1 6.4939666,0 z"
       transform="matrix(0.79854117,0.00311523,-0.00249652,0.98685131,15.195534,1021.8988)" />
    <path
       style="fill:#ffffff;stroke:#ffffff;stroke-width:1px;stroke-linecap:butt;stroke-linejoin:miter;stroke-opacity:1;fill-opacity:1"
       d="m 5.8344235,16.931972 c 2.6653471,-0.208977 4.1123477,0.348857 5.0734115,1.674221 0.832274,1.319087 1.187686,2.739642 1.217619,4.058729 1.563254,-0.02802 2.892748,0.01556 4.616805,-1.420555 1.032368,-1.171919 2.052927,-2.685614 4.261665,-2.942579 0.653343,-1.141704 0.806597,-1.396778 1.826429,-1.97863 -0.260055,-0.65057 -0.620963,-0.09091 -0.761012,-2.181567 l 1.877163,-1.522024 c -3.40611,2.266408 -2.890156,2.564065 -5.631488,2.384504 C 15.084944,14.987161 13.4079,13.999609 8.6248,14.953341 7.6946745,15.322862 6.764549,15.061018 5.8344235,16.931972 z"
       id="path3725"
       transform="translate(0,1020.3622)"
       sodipodi:nodetypes="ccccccccccc" />
    <path
       style="fill:#ffffff;stroke:#ffffff;stroke-width:1px;stroke-linecap:butt;stroke-linejoin:miter;stroke-opacity:1;fill-opacity:1"
       d="m 12.379125,15.460678 0,-4.971944 c 0.255573,-0.7055212 0.542997,-0.9762782 1.065417,-1.0146823 0.537342,-0.0622 1.216092,-0.1567806 1.877161,0.1522025 0.737841,0.9574698 1.697478,1.5452778 2.841111,1.8264278 1.065417,0.240038 2.130833,0.322473 3.19625,0.304405 -0.830559,0.280224 0.595407,0.310135 -2.993313,0.710278 l -1.72496,-0.152203 -0.558076,3.297718 -3.70359,-0.152202 z"
       id="path3727"
       transform="translate(0,1020.3622)"
       sodipodi:nodetypes="cccccccccc" />
    <path
       style="fill:#ffffff;fill-opacity:1;stroke:#ffffff;stroke-width:1px;stroke-linecap:butt;stroke-linejoin:miter;stroke-opacity:1"
       d="m 12.68353,1028.4664 0,-2.2323 c -0.0039,-0.5398 0.597272,-1.2976 1.522023,-1.2683 0.797928,-0.037 1.603456,0.6288 1.623492,1.1668 l -0.05073,2.3846 -3.094781,-0.051 -4e-6,2e-4 z"
       id="path3729"
       sodipodi:nodetypes="ccccccc" />
    <path
       sodipodi:type="arc"
       style="fill:#000000;fill-opacity:1;stroke:#000000;stroke-opacity:1"
       id="path3731"
       sodipodi:cx="16.13345"
       sodipodi:cy="6.5822072"
       sodipodi:rx="1.6234918"
       sodipodi:ry="0.81174588"
       d="m 17.756941,6.5822072 a 1.6234918,0.81174588 0 1 1 -3.246983,0 1.6234918,0.81174588 0 1 1 3.246983,0 z"
       transform="translate(0,1020.3622)" />
  </g>
</svg>
