<?xml version="1.0" encoding="UTF-8" standalone="no"?>
<!-- Created with Inkscape (http://www.inkscape.org/) -->

<svg
   xmlns:dc="http://purl.org/dc/elements/1.1/"
   xmlns:cc="http://creativecommons.org/ns#"
   xmlns:rdf="http://www.w3.org/1999/02/22-rdf-syntax-ns#"
   xmlns:svg="http://www.w3.org/2000/svg"
   xmlns="http://www.w3.org/2000/svg"
   xmlns:sodipodi="http://sodipodi.sourceforge.net/DTD/sodipodi-0.dtd"
   xmlns:inkscape="http://www.inkscape.org/namespaces/inkscape"
   width="32"
   height="32"
   id="svg2"
   version="1.1"
   inkscape:version="0.47 r22583"
   sodipodi:docname="att_wading.svg"
   inkscape:export-filename="/home/tharbaum/maemo/gpxview/trunk/data/icons/32x32/att_wading.png"
   inkscape:export-xdpi="90"
   inkscape:export-ydpi="90">
  <defs
     id="defs4">
    <inkscape:perspective
       sodipodi:type="inkscape:persp3d"
       inkscape:vp_x="0 : 526.18109 : 1"
       inkscape:vp_y="0 : 1000 : 0"
       inkscape:vp_z="744.09448 : 526.18109 : 1"
       inkscape:persp3d-origin="372.04724 : 350.78739 : 1"
       id="perspective10" />
    <inkscape:perspective
       id="perspective2882"
       inkscape:persp3d-origin="0.5 : 0.33333333 : 1"
       inkscape:vp_z="1 : 0.5 : 1"
       inkscape:vp_y="0 : 1000 : 0"
       inkscape:vp_x="0 : 0.5 : 1"
       sodipodi:type="inkscape:persp3d" />
    <inkscape:perspective
       id="perspective3682"
       inkscape:persp3d-origin="0.5 : 0.33333333 : 1"
       inkscape:vp_z="1 : 0.5 : 1"
       inkscape:vp_y="0 : 1000 : 0"
       inkscape:vp_x="0 : 0.5 : 1"
       sodipodi:type="inkscape:persp3d" />
    <inkscape:perspective
       id="perspective3704"
       inkscape:persp3d-origin="0.5 : 0.33333333 : 1"
       inkscape:vp_z="1 : 0.5 : 1"
       inkscape:vp_y="0 : 1000 : 0"
       inkscape:vp_x="0 : 0.5 : 1"
       sodipodi:type="inkscape:persp3d" />
    <inkscape:perspective
       id="perspective3726"
       inkscape:persp3d-origin="0.5 : 0.33333333 : 1"
       inkscape:vp_z="1 : 0.5 : 1"
       inkscape:vp_y="0 : 1000 : 0"
       inkscape:vp_x="0 : 0.5 : 1"
       sodipodi:type="inkscape:persp3d" />
    <inkscape:perspective
       id="perspective3748"
       inkscape:persp3d-origin="0.5 : 0.33333333 : 1"
       inkscape:vp_z="1 : 0.5 : 1"
       inkscape:vp_y="0 : 1000 : 0"
       inkscape:vp_x="0 : 0.5 : 1"
       sodipodi:type="inkscape:persp3d" />
    <inkscape:perspective
       id="perspective2866"
       inkscape:persp3d-origin="0.5 : 0.33333333 : 1"
       inkscape:vp_z="1 : 0.5 : 1"
       inkscape:vp_y="0 : 1000 : 0"
       inkscape:vp_x="0 : 0.5 : 1"
       sodipodi:type="inkscape:persp3d" />
  </defs>
  <sodipodi:namedview
     id="base"
     pagecolor="#000000"
     bordercolor="#666666"
     borderopacity="1.0"
     inkscape:pageopacity="0"
     inkscape:pageshadow="2"
     inkscape:zoom="19.710602"
     inkscape:cx="16"
     inkscape:cy="16"
     inkscape:document-units="px"
     inkscape:current-layer="layer1"
     showgrid="true"
     objecttolerance="20"
     inkscape:window-width="938"
     inkscape:window-height="904"
     inkscape:window-x="186"
     inkscape:window-y="65"
     inkscape:window-maximized="0"
     inkscape:snap-grids="false">
    <inkscape:grid
       type="xygrid"
       id="grid2818"
       empspacing="5"
       visible="true"
       enabled="true"
       snapvisiblegridlinesonly="true" />
  </sodipodi:namedview>
  <metadata
     id="metadata7">
    <rdf:RDF>
      <cc:Work
         rdf:about="">
        <dc:format>image/svg+xml</dc:format>
        <dc:type
           rdf:resource="http://purl.org/dc/dcmitype/StillImage" />
        <dc:title></dc:title>
      </cc:Work>
    </rdf:RDF>
  </metadata>
  <g
     inkscape:label="Layer 1"
     inkscape:groupmode="layer"
     id="layer1"
     transform="translate(0,-1020.3622)">
    <rect
       style="fill:#000000;fill-opacity:1;stroke:#ffffff;stroke-width:2;stroke-linecap:round;stroke-linejoin:round;stroke-miterlimit:4;stroke-opacity:1;stroke-dasharray:none;stroke-dashoffset:1.19999999999999996"
       id="rect2816"
       width="30"
       height="30"
       x="1"
       y="-15"
       transform="translate(0,1036.3622)"
       rx="2"
       ry="2" />
    <path
       style="fill:none;stroke:#ffffff;stroke-width:1px;stroke-linecap:round;stroke-linejoin:round;stroke-opacity:1;fill-opacity:1"
       d="m 5,25 c 0.6666667,0.666667 1.3333333,2 2,2 0.6666667,0 1.3333333,-2 2,-2 0.6666667,0 1.333333,2 2,2 0.666667,0 1.333333,-2 2,-2 0.666667,0 1.333333,2 2,2 0.666667,0 1.333333,-2 2,-2 0.666667,0 1.333333,2 2,2 0.666667,0 1.333333,-2 2,-2 0.666667,0 1.333333,2 2,2 0.666667,0 1.333333,-2 2,-2 0.666667,0 1.333333,1.333333 2,2"
       id="path2874"
       transform="translate(0,1020.3622)"
       sodipodi:nodetypes="czzzzzzzzzzz" />
    <path
       style="fill:#ffffff;stroke:#ffffff;stroke-width:1px;stroke-linecap:butt;stroke-linejoin:miter;stroke-opacity:1;fill-opacity:1"
       d="m 13.202936,23.101468 0.604753,-2.850685 0.0041,-3.185367 L 15,12 13.227576,13.366551 12.746329,14 12,17 c 0.295688,-1.462686 0.497563,-2.55012 0.913214,-4.492659 0.875411,-1.063556 1.892162,-1.561751 2.898532,-2.101468 L 18,11 l 1.289722,3.050734 1.714202,1.765083 -0.527606,0.281054 -1.65396,-1.143534 -1.065417,-2.283035 -1.522023,4.160197 c 0.658244,0.847301 1.097653,1.479042 1.826428,2.841111 l 0.811746,3.754324 -0.963948,-0.05073 -0.659544,-3.348451 c -0.534004,-1.449196 -1.577713,-1.620584 -2.232301,-2.587441 l -0.405873,3.754324 -0.659543,2.130834 -0.748947,-0.223002 z"
       id="path3648"
       transform="translate(0,1020.3622)"
       sodipodi:nodetypes="cccccccccccccccccccccccc" />
    <path
       sodipodi:type="arc"
       style="fill:#ffffff;fill-opacity:1;stroke:#ffffff;stroke-width:0;stroke-linecap:round;stroke-linejoin:round;stroke-miterlimit:4;stroke-opacity:1;stroke-dasharray:none"
       id="path3650"
       sodipodi:cx="19.355066"
       sodipodi:cy="8.3071671"
       sodipodi:rx="1.29372"
       sodipodi:ry="1.4205552"
       d="m 20.648786,8.3071671 a 1.29372,1.4205552 0 1 1 -2.58744,0 1.29372,1.4205552 0 1 1 2.58744,0 z"
       transform="matrix(1.2352941,0,0,1.2142857,-5.721018,1018.5314)" />
  </g>
</svg>
