<?xml version="1.0" encoding="UTF-8" standalone="no"?>
<!-- Created with Inkscape (http://www.inkscape.org/) -->
<svg id="svg2" xmlns:rdf="http://www.w3.org/1999/02/22-rdf-syntax-ns#" xmlns="http://www.w3.org/2000/svg" height="32" width="32" version="1.1" xmlns:cc="http://creativecommons.org/ns#" xmlns:dc="http://purl.org/dc/elements/1.1/">
 <defs id="defs4"></defs>
 <metadata id="metadata7">
  <rdf:RDF>
   <cc:Work rdf:about="">
    <dc:format>image/svg+xml</dc:format>
    <dc:type rdf:resource="http://purl.org/dc/dcmitype/StillImage"/>
    <dc:title/>
   </cc:Work>
  </rdf:RDF>
 </metadata>
 <g id="layer1" transform="translate(0,-1020.3622)">
  <rect id="rect2816" stroke-linejoin="round" ry="2" stroke-dasharray="none" stroke-dashoffset="1.19999999999999996" rx="2" transform="translate(0,1036.3622)" height="30" width="30" stroke="#FFF" stroke-linecap="round" stroke-miterlimit="4" y="-15" x="1" stroke-width="2" fill="#000"/>
  <rect id="rect2829" opacity="0.99" rx="0.89136" ry="0.92971" height="7.3057" width="9.7917" stroke="#FFF" y="1040.2" x="8.8785" fill="#000"/>
  <path id="path3603" stroke-linejoin="round" d="m18.467,26.927,7.9653-4.4646-0.10147-4.9212-7.7623,2.6889-0.10147,6.6969z" transform="translate(0,1020.3622)" stroke="#FFF" stroke-linecap="round" stroke-width="1px" fill="#000"/>
  <path id="path3605" stroke-linejoin="round" d="m9.0307,20.077,9.5887-0.10147,7.6609-2.8411-8.3711-0.05073-8.8785,2.9933z" transform="translate(0,1020.3622)" stroke="#FFF" stroke-linecap="round" stroke-miterlimit="4" stroke-dasharray="none" stroke-width="1.5" fill="#FFF"/>
  <path id="path2916" opacity="0.98999999000000005" stroke-linejoin="round" style="text-align:center;" d="m16.336,9.8799c0,2.802-2.3964,5.0734-5.3524,5.0734-2.9561,0-5.3524-2.2714-5.3524-5.0734s2.3964-5.0734,5.3524-5.0734c2.9561,0,5.3524,2.2714,5.3524,5.0734z" transform="matrix(0.97994408,0,0,1.033841,0.23635665,1020.1479)" stroke="#FFF" stroke-linecap="round" stroke-miterlimit="4" stroke-dasharray="none" stroke-width="1.50000000000000000" fill="#FFF"/>
  <g id="text2918" style="text-anchor:middle;text-align:center;" font-weight="normal" transform="scale(0.98045069,1.0199391)" font-style="normal" font-stretch="normal" font-size="10.81014252px" font-variant="normal" font-family="Sans" fill="#000">
   <path id="path3010" style="" d="m10.165,1007.3,0,2.9612,1.3407,0c0.49616,0,0.87973-0.1285,1.1507-0.3853,0.27095-0.2569,0.40643-0.6229,0.40644-1.0979-0.000005-0.4716-0.13548-0.8358-0.40644-1.0927-0.27096-0.2568-0.65452-0.3853-1.1507-0.3853h-1.3407m-1.0662-0.8762,2.4069,0c0.88325,0,1.5501,0.2006,2.0005,0.6017,0.45394,0.3977,0.68091,0.9818,0.68091,1.7525-0.000006,0.7776-0.22698,1.3653-0.68091,1.7629-0.45043,0.3977-1.1173,0.5965-2.0005,0.5965h-1.3407v3.167h-1.0662v-7.8806"/>
  </g>
 </g>
</svg>
