<?xml version="1.0" encoding="UTF-8" standalone="no"?>
<!-- Created with Inkscape (http://www.inkscape.org/) -->

<svg
   xmlns:dc="http://purl.org/dc/elements/1.1/"
   xmlns:cc="http://creativecommons.org/ns#"
   xmlns:rdf="http://www.w3.org/1999/02/22-rdf-syntax-ns#"
   xmlns:svg="http://www.w3.org/2000/svg"
   xmlns="http://www.w3.org/2000/svg"
   xmlns:sodipodi="http://sodipodi.sourceforge.net/DTD/sodipodi-0.dtd"
   xmlns:inkscape="http://www.inkscape.org/namespaces/inkscape"
   width="32"
   height="32"
   id="svg2"
   version="1.1"
   inkscape:version="0.48.2 r9819"
   sodipodi:docname="att_treeclimbing.svg">
  <defs
     id="defs4">
    <inkscape:path-effect
       effect="spiro"
       id="path-effect3834"
       is_visible="true" />
    <inkscape:perspective
       sodipodi:type="inkscape:persp3d"
       inkscape:vp_x="0 : 526.18109 : 1"
       inkscape:vp_y="0 : 1000 : 0"
       inkscape:vp_z="744.09448 : 526.18109 : 1"
       inkscape:persp3d-origin="372.04724 : 350.78739 : 1"
       id="perspective10" />
    <inkscape:perspective
       id="perspective2882"
       inkscape:persp3d-origin="0.5 : 0.33333333 : 1"
       inkscape:vp_z="1 : 0.5 : 1"
       inkscape:vp_y="0 : 1000 : 0"
       inkscape:vp_x="0 : 0.5 : 1"
       sodipodi:type="inkscape:persp3d" />
    <inkscape:perspective
       id="perspective3682"
       inkscape:persp3d-origin="0.5 : 0.33333333 : 1"
       inkscape:vp_z="1 : 0.5 : 1"
       inkscape:vp_y="0 : 1000 : 0"
       inkscape:vp_x="0 : 0.5 : 1"
       sodipodi:type="inkscape:persp3d" />
    <inkscape:perspective
       id="perspective3704"
       inkscape:persp3d-origin="0.5 : 0.33333333 : 1"
       inkscape:vp_z="1 : 0.5 : 1"
       inkscape:vp_y="0 : 1000 : 0"
       inkscape:vp_x="0 : 0.5 : 1"
       sodipodi:type="inkscape:persp3d" />
    <inkscape:perspective
       id="perspective3726"
       inkscape:persp3d-origin="0.5 : 0.33333333 : 1"
       inkscape:vp_z="1 : 0.5 : 1"
       inkscape:vp_y="0 : 1000 : 0"
       inkscape:vp_x="0 : 0.5 : 1"
       sodipodi:type="inkscape:persp3d" />
    <inkscape:perspective
       id="perspective3748"
       inkscape:persp3d-origin="0.5 : 0.33333333 : 1"
       inkscape:vp_z="1 : 0.5 : 1"
       inkscape:vp_y="0 : 1000 : 0"
       inkscape:vp_x="0 : 0.5 : 1"
       sodipodi:type="inkscape:persp3d" />
  </defs>
  <sodipodi:namedview
     id="base"
     pagecolor="#000000"
     bordercolor="#666666"
     borderopacity="1.0"
     inkscape:pageopacity="0"
     inkscape:pageshadow="2"
     inkscape:zoom="23.844242"
     inkscape:cx="18.211212"
     inkscape:cy="14.268598"
     inkscape:document-units="px"
     inkscape:current-layer="layer1"
     showgrid="true"
     objecttolerance="20"
     inkscape:window-width="938"
     inkscape:window-height="904"
     inkscape:window-x="1479"
     inkscape:window-y="35"
     inkscape:window-maximized="0"
     inkscape:snap-grids="false">
    <inkscape:grid
       type="xygrid"
       id="grid2818"
       empspacing="5"
       visible="true"
       enabled="true"
       snapvisiblegridlinesonly="true" />
  </sodipodi:namedview>
  <metadata
     id="metadata7">
    <rdf:RDF>
      <cc:Work
         rdf:about="">
        <dc:format>image/svg+xml</dc:format>
        <dc:type
           rdf:resource="http://purl.org/dc/dcmitype/StillImage" />
        <dc:title />
      </cc:Work>
    </rdf:RDF>
  </metadata>
  <g
     inkscape:label="Layer 1"
     inkscape:groupmode="layer"
     id="layer1"
     transform="translate(0,-1020.3622)">
    <rect
       style="fill:#000000;fill-opacity:1;stroke:#ffffff;stroke-width:2;stroke-linecap:round;stroke-linejoin:round;stroke-miterlimit:4;stroke-opacity:1;stroke-dasharray:none;stroke-dashoffset:1.19999999999999996"
       id="rect2816"
       width="30"
       height="30"
       x="1"
       y="-15"
       transform="translate(0,1036.3622)"
       rx="2"
       ry="2" />
    <rect
       style="fill:#ffffff;fill-opacity:1;stroke:#ffffff;stroke-width:1;stroke-linecap:round;stroke-linejoin:round;stroke-miterlimit:4;stroke-opacity:1;stroke-dasharray:none;stroke-dashoffset:1.2"
       id="rect3058"
       width="2.6002114"
       height="14.385025"
       x="14.678596"
       y="12.162927"
       transform="translate(0,1020.3622)"
       rx="0.38963681"
       ry="0.36599755" />
    <path
       style="fill:#ffffff;fill-opacity:1;stroke:#ffffff;stroke-width:1;stroke-linecap:round;stroke-linejoin:round;stroke-miterlimit:4;stroke-opacity:1;stroke-dasharray:none;stroke-dashoffset:1.2"
       d="M 14.88829,17.531098 10.987978,14.008235"
       id="path3828"
       inkscape:connector-curvature="0"
       transform="translate(0,1020.3622)" />
    <path
       style="fill:#ffffff;fill-opacity:1;stroke:#ffffff;stroke-width:2;stroke-linecap:round;stroke-linejoin:round;stroke-miterlimit:4;stroke-opacity:1;stroke-dasharray:none;stroke-dashoffset:1.2"
       d="m 16.440028,18.034365 5.158477,-4.906846"
       id="path3830"
       inkscape:connector-curvature="0"
       transform="translate(0,1020.3622)"
       sodipodi:nodetypes="cc" />
    <path
       style="fill:#ffffff;fill-opacity:1;stroke:#ffffff;stroke-width:1;stroke-linecap:round;stroke-linejoin:round;stroke-miterlimit:4;stroke-opacity:1;stroke-dasharray:none;stroke-dashoffset:1.19999999999999996"
       d="m 4.4874565,12.624253 c 0.046925,0.465442 0.1445396,0.930493 0.3446847,1.353317 0.2001452,0.422823 0.5086346,0.80281 0.9134806,1.037198 0.2923889,0.16928 0.6259903,0.258344 0.961639,0.296904 0.3356488,0.03856 0.6749267,0.02827 1.0122691,0.0096 0.6746847,-0.03726 1.3706585,-0.105031 2.0102823,0.112844 0.4795868,0.163361 0.8924738,0.476659 1.3514308,0.691248 0.229479,0.107295 0.47324,0.190365 0.725602,0.21241 0.252362,0.02205 0.514676,-0.02006 0.73287,-0.148759 0.194927,-0.114977 0.34679,-0.293998 0.454981,-0.492772 0.108191,-0.198774 0.175117,-0.417421 0.226515,-0.637818 0.102795,-0.440793 0.149702,-0.904802 0.366975,-1.301863 0.224693,-0.410622 0.620434,-0.714311 1.061073,-0.872217 0.44064,-0.157906 0.923222,-0.177173 1.385692,-0.104932 0.92494,0.144481 1.75219,0.635208 2.585896,1.061029 1.260906,0.644016 2.61348,1.162984 4.02613,1.258165 0.519748,0.03502 1.054919,0.0097 1.538637,-0.183598 0.241859,-0.09667 0.468342,-0.235271 0.65475,-0.417186 0.186408,-0.181915 0.331879,-0.407934 0.406821,-0.657383 0.08968,-0.298489 0.07619,-0.621633 -0.0013,-0.923511 -0.07751,-0.301878 -0.216686,-0.584676 -0.37573,-0.85271 -0.318088,-0.536069 -0.7228,-1.030534 -0.923063,-1.620826 C 23.734535,9.8169371 23.770727,9.1382418 23.758316,8.4767897 23.752111,8.1460637 23.732932,7.8139692 23.663473,7.4905599 23.594013,7.1671506 23.472449,6.8512345 23.276059,6.5850596 22.95366,6.1481003 22.446627,5.8720933 21.918149,5.7472476 21.389672,5.6224019 20.837827,5.6370169 20.297811,5.6940983 19.757796,5.7511797 19.222384,5.8499154 18.680959,5.8915539 18.139534,5.9331924 17.584966,5.9158919 17.06911,5.7462827 16.446464,5.541562 15.917612,5.1292305 15.392221,4.7373606 14.86683,4.3454907 14.312171,3.958025 13.672064,3.8170958 13.214386,3.7163311 12.73159,3.7489083 12.282997,3.8845075 11.834404,4.0201067 11.419414,4.2565611 11.056027,4.5524879 10.329254,5.1443415 9.817668,5.9585413 9.3943014,6.7947539 9.1831337,7.2118417 8.9899686,7.6392276 8.7435063,8.0364811 8.497044,8.4337346 8.1921613,8.8040037 7.8006253,9.0594515 7.3861194,9.3298854 6.8980166,9.4580543 6.425438,9.6050885 5.9528594,9.7521228 5.4718983,9.9311937 5.1165391,10.275678 c -0.301271,0.292051 -0.4907788,0.686549 -0.5820493,1.096094 -0.091271,0.409546 -0.089123,0.835004 -0.047033,1.252481"
       id="path3832"
       inkscape:path-effect="#path-effect3834"
       inkscape:original-d="m 4.4874565,12.624253 c 0.095086,0.85016 0.3327253,1.76335 1.2581653,2.390515 0.92544,0.627165 2.8509532,0.208876 3.9841904,0.419388 1.1332368,0.210512 1.9760138,1.158416 2.8099028,0.754899 0.833889,-0.403517 -0.02698,-1.737676 1.048471,-2.432453 1.075455,-0.694777 3.510384,-0.161433 5.032661,0.08388 1.522277,0.245313 2.844904,1.345603 4.02613,1.258165 1.181226,-0.08744 2.199494,-0.247016 2.600208,-1.258167 0.400714,-1.011151 -0.965696,-2.183336 -1.300104,-3.397047 C 23.612673,9.2297222 24.498242,7.7618141 23.276059,6.5850596 22.053876,5.4083051 18.675158,6.2881565 17.06911,5.7462827 15.463062,5.2044089 15.190252,3.7475095 13.672064,3.8170958 12.153876,3.8866821 10.337311,5.856558 9.3943014,6.7947539 8.4512913,7.7329498 8.5344456,8.4519264 7.8006253,9.0594515 7.066805,9.6669766 5.6964055,9.5921481 5.1165391,10.275678 4.5366727,10.959208 4.3923704,11.774093 4.4874565,12.624253 z"
       inkscape:connector-curvature="0"
       transform="translate(0,1020.3622)"
       sodipodi:nodetypes="zzzzzzzzzzzzzzzz" />
  </g>
</svg>
