<?xml version="1.0" encoding="UTF-8" standalone="no"?>
<!-- Created with Inkscape (http://www.inkscape.org/) -->

<svg
   xmlns:dc="http://purl.org/dc/elements/1.1/"
   xmlns:cc="http://creativecommons.org/ns#"
   xmlns:rdf="http://www.w3.org/1999/02/22-rdf-syntax-ns#"
   xmlns:svg="http://www.w3.org/2000/svg"
   xmlns="http://www.w3.org/2000/svg"
   xmlns:sodipodi="http://sodipodi.sourceforge.net/DTD/sodipodi-0.dtd"
   xmlns:inkscape="http://www.inkscape.org/namespaces/inkscape"
   width="32"
   height="32"
   id="svg2"
   version="1.1"
   inkscape:version="0.48.2 r9819"
   sodipodi:docname="att_partnetship.svg">
  <defs
     id="defs4">
    <inkscape:perspective
       sodipodi:type="inkscape:persp3d"
       inkscape:vp_x="0 : 526.18109 : 1"
       inkscape:vp_y="0 : 1000 : 0"
       inkscape:vp_z="744.09448 : 526.18109 : 1"
       inkscape:persp3d-origin="372.04724 : 350.78739 : 1"
       id="perspective10" />
    <inkscape:perspective
       id="perspective2882"
       inkscape:persp3d-origin="0.5 : 0.33333333 : 1"
       inkscape:vp_z="1 : 0.5 : 1"
       inkscape:vp_y="0 : 1000 : 0"
       inkscape:vp_x="0 : 0.5 : 1"
       sodipodi:type="inkscape:persp3d" />
    <inkscape:perspective
       id="perspective3682"
       inkscape:persp3d-origin="0.5 : 0.33333333 : 1"
       inkscape:vp_z="1 : 0.5 : 1"
       inkscape:vp_y="0 : 1000 : 0"
       inkscape:vp_x="0 : 0.5 : 1"
       sodipodi:type="inkscape:persp3d" />
    <inkscape:perspective
       id="perspective3704"
       inkscape:persp3d-origin="0.5 : 0.33333333 : 1"
       inkscape:vp_z="1 : 0.5 : 1"
       inkscape:vp_y="0 : 1000 : 0"
       inkscape:vp_x="0 : 0.5 : 1"
       sodipodi:type="inkscape:persp3d" />
    <inkscape:perspective
       id="perspective3726"
       inkscape:persp3d-origin="0.5 : 0.33333333 : 1"
       inkscape:vp_z="1 : 0.5 : 1"
       inkscape:vp_y="0 : 1000 : 0"
       inkscape:vp_x="0 : 0.5 : 1"
       sodipodi:type="inkscape:persp3d" />
    <inkscape:perspective
       id="perspective3748"
       inkscape:persp3d-origin="0.5 : 0.33333333 : 1"
       inkscape:vp_z="1 : 0.5 : 1"
       inkscape:vp_y="0 : 1000 : 0"
       inkscape:vp_x="0 : 0.5 : 1"
       sodipodi:type="inkscape:persp3d" />
  </defs>
  <sodipodi:namedview
     id="base"
     pagecolor="#000000"
     bordercolor="#666666"
     borderopacity="1.0"
     inkscape:pageopacity="0"
     inkscape:pageshadow="2"
     inkscape:zoom="23.96875"
     inkscape:cx="16"
     inkscape:cy="16"
     inkscape:document-units="px"
     inkscape:current-layer="layer1"
     showgrid="false"
     objecttolerance="20"
     inkscape:window-width="938"
     inkscape:window-height="904"
     inkscape:window-x="1470"
     inkscape:window-y="33"
     inkscape:window-maximized="0"
     inkscape:snap-grids="false">
    <inkscape:grid
       type="xygrid"
       id="grid2818"
       empspacing="5"
       visible="true"
       enabled="true"
       snapvisiblegridlinesonly="true" />
  </sodipodi:namedview>
  <metadata
     id="metadata7">
    <rdf:RDF>
      <cc:Work
         rdf:about="">
        <dc:format>image/svg+xml</dc:format>
        <dc:type
           rdf:resource="http://purl.org/dc/dcmitype/StillImage" />
        <dc:title />
      </cc:Work>
    </rdf:RDF>
  </metadata>
  <g
     inkscape:label="Layer 1"
     inkscape:groupmode="layer"
     id="layer1"
     transform="translate(0,-1020.3622)">
    <rect
       style="fill:#000000;fill-opacity:1;stroke:#ffffff;stroke-width:2;stroke-linecap:round;stroke-linejoin:round;stroke-miterlimit:4;stroke-opacity:1;stroke-dasharray:none;stroke-dashoffset:1.19999999999999996"
       id="rect2816"
       width="30"
       height="30"
       x="1"
       y="-15"
       transform="translate(0,1036.3622)"
       rx="2"
       ry="2" />
    <path
       style="fill:#ffffff;fill-opacity:1;stroke:#000000;stroke-width:1;stroke-linecap:round;stroke-linejoin:round;stroke-miterlimit:4;stroke-opacity:1;stroke-dasharray:none;stroke-dashoffset:1.2"
       d="m 7.3428944,14.810952 c 0,0 -4.3461792,3.835779 -2.5867014,5.465449 1.6883681,1.563807 3.3803322,-1.093139 4.0469361,-1.752281 -0.7397514,0.924144 -2.6177498,2.911808 -1.2099088,4.130378 1.5847094,1.371661 3.3739767,-1.464542 4.0469357,-2.211213 -0.620392,0.797006 -3.0567441,3.2359 -1.335071,4.338984 1.498438,0.960056 2.909268,-1.466706 3.504563,-2.169492 -0.572893,0.757448 -2.579959,2.835509 -1.043025,3.921773 1.39533,0.986182 2.575733,-0.780907 3.295958,-1.418513 0.92883,-0.971374 1.66884,-2.252934 1.66884,-2.252934 z"
       id="path3830"
       inkscape:connector-curvature="0"
       transform="translate(0,1020.3622)"
       sodipodi:nodetypes="cscscscsccc" />
    <path
       style="fill:#ffffff;fill-opacity:1;stroke:#000000;stroke-width:1;stroke-linecap:round;stroke-linejoin:round;stroke-miterlimit:4;stroke-opacity:1;stroke-dasharray:none;stroke-dashoffset:1.2"
       d="m 2.4615385,15.645372 13.0586705,9.095176 c 0,0 2.039225,1.570369 2.753585,0.917861 1.086321,-0.992263 -1.043025,-2.711864 -1.043025,-2.711864 l -1.585397,-1.585398 1.585397,1.543677 c 0,0 2.784578,3.007786 3.963495,1.960887 1.211749,-1.076055 -1.376793,-3.045633 -1.376793,-3.045633 l -2.127771,-2.086049 2.169492,2.086049 c 0,0 3.069682,2.692783 4.005215,1.418514 0.495182,-0.674477 -0.917862,-2.336375 -0.917862,-2.336375 l -3.3794,-2.962191 2.795306,2.294655 c 0,0 2.01404,0.9898 2.670144,0.375488 0.549696,-0.514681 0.330422,-1.68747 -0.166884,-2.252933 -2.618116,-2.976937 -5.46545,-5.340287 -5.46545,-5.340287 0,0 -3.369661,-3.4242304 -5.131682,-3.546284 -1.130604,-0.078316 -3.379401,1.501955 -3.379401,1.501955 L 2.5032595,7.1342894 z"
       id="path3058"
       inkscape:connector-curvature="0"
       transform="translate(0,1020.3622)"
       sodipodi:nodetypes="ccscccscccscccsscsccc" />
    <path
       style="fill:#ffffff;fill-opacity:1;stroke:#000000;stroke-width:1;stroke-linecap:round;stroke-linejoin:round;stroke-miterlimit:4;stroke-opacity:1;stroke-dasharray:none;stroke-dashoffset:1.2"
       d="m 29.079531,6.0078227 c 0,0 -4.112227,3.8950472 -6.71708,4.0052153 -1.393897,0.05895 -2.907338,-1.7250523 -4.505867,-1.6271188 -1.598529,0.097933 -2.972173,1.4654713 -3.921773,3.0039108 -1.143537,1.852635 -0.547964,4.216661 -0.04172,4.63103 1.433684,1.173496 3.61381,-3.150395 4.505867,-3.254237 2.981972,-0.347123 6.925684,5.757497 6.925684,5.757497 l 3.713169,-2.711864 z"
       id="path3828"
       inkscape:connector-curvature="0"
       transform="translate(0,1020.3622)"
       sodipodi:nodetypes="cszsssccc" />
  </g>
</svg>
