<?xml version="1.0" encoding="UTF-8" standalone="no"?>
<!-- Created with Inkscape (http://www.inkscape.org/) -->
<svg
   xmlns:dc="http://purl.org/dc/elements/1.1/"
   xmlns:cc="http://creativecommons.org/ns#"
   xmlns:rdf="http://www.w3.org/1999/02/22-rdf-syntax-ns#"
   xmlns:svg="http://www.w3.org/2000/svg"
   xmlns="http://www.w3.org/2000/svg"
   xmlns:sodipodi="http://sodipodi.sourceforge.net/DTD/sodipodi-0.dtd"
   xmlns:inkscape="http://www.inkscape.org/namespaces/inkscape"
   width="32"
   height="32"
   id="svg2"
   version="1.1"
   inkscape:version="0.46"
   sodipodi:docname="att_danger.svg"
   sodipodi:version="0.32"
   inkscape:output_extension="org.inkscape.output.svg.inkscape"
   inkscape:export-filename="/scratchbox/users/THarbaum/home/THarbaum/navi/gpxview/trunk/data/icons/32x32/att_danger.png"
   inkscape:export-xdpi="90"
   inkscape:export-ydpi="90">
  <defs
     id="defs4">
    <inkscape:perspective
       sodipodi:type="inkscape:persp3d"
       inkscape:vp_x="0 : 526.18109 : 1"
       inkscape:vp_y="0 : 1000 : 0"
       inkscape:vp_z="744.09448 : 526.18109 : 1"
       inkscape:persp3d-origin="372.04724 : 350.78739 : 1"
       id="perspective10" />
    <inkscape:perspective
       id="perspective2479"
       inkscape:persp3d-origin="372.04724 : 350.78739 : 1"
       inkscape:vp_z="744.09448 : 526.18109 : 1"
       inkscape:vp_y="0 : 1000 : 0"
       inkscape:vp_x="0 : 526.18109 : 1"
       sodipodi:type="inkscape:persp3d" />
  </defs>
  <sodipodi:namedview
     id="base"
     pagecolor="#000000"
     bordercolor="#666666"
     borderopacity="1.0"
     inkscape:pageopacity="0"
     inkscape:pageshadow="2"
     inkscape:zoom="22.75"
     inkscape:cx="16"
     inkscape:cy="16.021978"
     inkscape:document-units="px"
     inkscape:current-layer="layer1"
     showgrid="true"
     objecttolerance="20"
     inkscape:window-width="1109"
     inkscape:window-height="927"
     inkscape:window-x="164"
     inkscape:window-y="181"
     inkscape:window-maximized="0">
    <inkscape:grid
       type="xygrid"
       id="grid2818"
       empspacing="5"
       visible="true"
       enabled="true"
       snapvisiblegridlinesonly="true" />
  </sodipodi:namedview>
  <metadata
     id="metadata7">
    <rdf:RDF>
      <cc:Work
         rdf:about="">
        <dc:format>image/svg+xml</dc:format>
        <dc:type
           rdf:resource="http://purl.org/dc/dcmitype/StillImage" />
        <dc:title />
      </cc:Work>
    </rdf:RDF>
  </metadata>
  <g
     inkscape:label="Layer 1"
     inkscape:groupmode="layer"
     id="layer1"
     transform="translate(0,-1020.3622)">
    <rect
       style="fill:#000000;fill-opacity:1;stroke:#ffffff;stroke-width:2;stroke-linecap:round;stroke-linejoin:round;stroke-miterlimit:4;stroke-opacity:1;stroke-dasharray:none;stroke-dashoffset:1.19999999999999996"
       id="rect2816"
       width="30"
       height="30"
       x="1"
       y="-15"
       transform="translate(0,1036.3622)"
       rx="2"
       ry="2" />
    <path
       style="fill:#ffffff;fill-rule:evenodd;stroke:#ffffff;stroke-width:1px;stroke-linecap:butt;stroke-linejoin:miter;stroke-opacity:1;fill-opacity:1"
       d="M 13.381018,15.097662 C 12.262494,14.560989 12.147529,13.820699 12.191545,13.116435 C 12.235562,12.412171 11.628518,11.505221 11.180435,10.56378 C 10.740794,9.6400792 10.526203,8.2819196 10.915549,7.0876854 C 11.317827,5.8537885 12.059817,5.1582049 13.424913,4.445123 C 14.790009,3.7320411 17.466184,3.793223 18.795169,4.400925 C 20.124154,5.008627 20.98643,5.878235 21.260336,7 C 21.534242,8.121765 21.291792,9.8973389 20.951675,10.871653 C 20.606514,11.860422 20.058598,12.762191 20.028417,13.513188 C 20,14.220298 19.736525,14.817317 18.618982,15.185695 C 17.501439,15.554073 14.499542,15.634335 13.381018,15.097662 z"
       id="path3261"
       transform="translate(0,1020.3622)"
       sodipodi:nodetypes="czzzzzzzzzz" />
    <path
       style="fill:#ffffff;fill-opacity:1;fill-rule:evenodd;stroke:#ffffff;stroke-width:1px;stroke-linecap:butt;stroke-linejoin:miter;stroke-opacity:1"
       d="M 10.44301,1039.0106 C 9.768205,1039.0799 9.9932498,1040.1772 9.7713137,1040.7134 C 9.5493776,1041.2496 8.3065371,1041.5688 8.8241758,1042.2201 C 9.3206671,1042.8449 9.4392878,1042.0559 11.34979,1042.2364 C 13.26507,1042.4174 19.439118,1045.282 20.665696,1046.2332 C 21.913281,1047.2008 21.299658,1048.0866 22.297859,1048.1426 C 23.295002,1048.1986 22.904097,1047.5173 23.240266,1046.8006 C 23.610879,1046.0106 24.451216,1046.2712 24.103029,1045.5989 C 23.719267,1044.858 23.227677,1045.7588 21.290316,1045.1244 C 19.352955,1044.4901 12.700448,1041.7201 11.662741,1040.8895 C 10.646855,1040.0763 11.114531,1038.9415 10.44301,1039.0106 z"
       id="path2485"
       sodipodi:nodetypes="czzzzzzzzzz" />
    <path
       style="fill:#ffffff;fill-opacity:1;fill-rule:evenodd;stroke:#ffffff;stroke-width:1px;stroke-linecap:butt;stroke-linejoin:miter;stroke-opacity:1"
       d="M 22.153865,1039.0815 C 22.828669,1039.1509 22.603625,1040.2481 22.825561,1040.7843 C 23.047497,1041.3206 24.290337,1041.6397 23.772699,1042.2911 C 23.276207,1042.9158 23.157587,1042.1269 21.247085,1042.3074 C 19.331804,1042.4883 13.157756,1045.3529 11.931178,1046.3042 C 10.683594,1047.2717 11.297217,1048.1575 10.299016,1048.2135 C 9.3018724,1048.2695 9.6927774,1047.5882 9.3566084,1046.8716 C 8.9859954,1046.0815 8.1456584,1046.3421 8.4938454,1045.6699 C 8.8776074,1044.9289 9.3691974,1045.8297 11.306558,1045.1954 C 13.243919,1044.561 19.896426,1041.791 20.934133,1040.9604 C 21.95002,1040.1473 21.482344,1039.0124 22.153865,1039.0815 z"
       id="path3257"
       sodipodi:nodetypes="czzzzzzzzzz" />
    <path
       style="fill:#ffffff;fill-opacity:1;fill-rule:evenodd;stroke:#ffffff;stroke-width:1px;stroke-linecap:butt;stroke-linejoin:miter;stroke-opacity:1"
       d="M 13.73315,1037.3622 C 13.509713,1037.3634 14.134902,1039.501 14.349381,1039.7831 C 14.580955,1040.0877 17.514754,1040.1513 17.911967,1039.8271 C 18.253996,1039.548 19.065886,1037.4336 18.839004,1037.4504 C 18.568386,1037.4704 17.259292,1037.8441 16.330124,1037.8464 C 15.400956,1037.8486 13.912633,1037.3613 13.73315,1037.3622 z"
       id="path3259"
       sodipodi:nodetypes="czzzzz" />
    <path
       sodipodi:type="arc"
       style="fill:#000000;fill-opacity:1;stroke:#000000;stroke-opacity:1"
       id="path3263"
       sodipodi:cx="13.160935"
       sodipodi:cy="10.431912"
       sodipodi:rx="0.92434663"
       sodipodi:ry="0.92434663"
       d="M 14.085282,10.431912 A 0.92434663,0.92434663 0 1 1 12.236589,10.431912 A 0.92434663,0.92434663 0 1 1 14.085282,10.431912 z"
       transform="translate(0.5281981,1020.7583)" />
    <path
       sodipodi:type="arc"
       style="fill:#000000;fill-opacity:1;stroke:#000000;stroke-opacity:1"
       id="path3265"
       sodipodi:cx="13.160935"
       sodipodi:cy="10.431912"
       sodipodi:rx="0.92434663"
       sodipodi:ry="0.92434663"
       d="M 14.085282,10.431912 A 0.92434663,0.92434663 0 1 1 12.236589,10.431912 A 0.92434663,0.92434663 0 1 1 14.085282,10.431912 z"
       transform="translate(5.5900962,1020.8546)" />
    <path
       style="fill:#000000;fill-opacity:1;fill-rule:evenodd;stroke:#000000;stroke-width:1px;stroke-linecap:butt;stroke-linejoin:miter;stroke-opacity:1"
       d="M 16.263736,1032.4188 C 16.164464,1032.4213 15.567375,1034.0112 15.669513,1034.0435 C 15.764523,1034.0735 16.818579,1034.0595 16.911883,1034.0268 C 17.012112,1033.9916 16.363184,1032.4163 16.263736,1032.4188 z"
       id="path3267"
       sodipodi:nodetypes="czzz" />
  </g>
</svg>
