<?xml version="1.0" encoding="UTF-8" standalone="no"?>
<!-- Created with Inkscape (http://www.inkscape.org/) -->

<svg
   xmlns:dc="http://purl.org/dc/elements/1.1/"
   xmlns:cc="http://creativecommons.org/ns#"
   xmlns:rdf="http://www.w3.org/1999/02/22-rdf-syntax-ns#"
   xmlns:svg="http://www.w3.org/2000/svg"
   xmlns="http://www.w3.org/2000/svg"
   xmlns:sodipodi="http://sodipodi.sourceforge.net/DTD/sodipodi-0.dtd"
   xmlns:inkscape="http://www.inkscape.org/namespaces/inkscape"
   width="32"
   height="32"
   id="svg2"
   version="1.1"
   inkscape:version="0.48.2 r9819"
   sodipodi:docname="att_teamwork.svg">
  <defs
     id="defs4">
    <inkscape:perspective
       sodipodi:type="inkscape:persp3d"
       inkscape:vp_x="0 : 526.18109 : 1"
       inkscape:vp_y="0 : 1000 : 0"
       inkscape:vp_z="744.09448 : 526.18109 : 1"
       inkscape:persp3d-origin="372.04724 : 350.78739 : 1"
       id="perspective10" />
    <inkscape:perspective
       id="perspective2882"
       inkscape:persp3d-origin="0.5 : 0.33333333 : 1"
       inkscape:vp_z="1 : 0.5 : 1"
       inkscape:vp_y="0 : 1000 : 0"
       inkscape:vp_x="0 : 0.5 : 1"
       sodipodi:type="inkscape:persp3d" />
    <inkscape:perspective
       id="perspective3682"
       inkscape:persp3d-origin="0.5 : 0.33333333 : 1"
       inkscape:vp_z="1 : 0.5 : 1"
       inkscape:vp_y="0 : 1000 : 0"
       inkscape:vp_x="0 : 0.5 : 1"
       sodipodi:type="inkscape:persp3d" />
    <inkscape:perspective
       id="perspective3704"
       inkscape:persp3d-origin="0.5 : 0.33333333 : 1"
       inkscape:vp_z="1 : 0.5 : 1"
       inkscape:vp_y="0 : 1000 : 0"
       inkscape:vp_x="0 : 0.5 : 1"
       sodipodi:type="inkscape:persp3d" />
    <inkscape:perspective
       id="perspective3726"
       inkscape:persp3d-origin="0.5 : 0.33333333 : 1"
       inkscape:vp_z="1 : 0.5 : 1"
       inkscape:vp_y="0 : 1000 : 0"
       inkscape:vp_x="0 : 0.5 : 1"
       sodipodi:type="inkscape:persp3d" />
    <inkscape:perspective
       id="perspective3748"
       inkscape:persp3d-origin="0.5 : 0.33333333 : 1"
       inkscape:vp_z="1 : 0.5 : 1"
       inkscape:vp_y="0 : 1000 : 0"
       inkscape:vp_x="0 : 0.5 : 1"
       sodipodi:type="inkscape:persp3d" />
  </defs>
  <sodipodi:namedview
     id="base"
     pagecolor="#000000"
     bordercolor="#666666"
     borderopacity="1.0"
     inkscape:pageopacity="0"
     inkscape:pageshadow="2"
     inkscape:zoom="23.96875"
     inkscape:cx="16"
     inkscape:cy="16"
     inkscape:document-units="px"
     inkscape:current-layer="layer1"
     showgrid="true"
     objecttolerance="20"
     inkscape:window-width="938"
     inkscape:window-height="904"
     inkscape:window-x="1415"
     inkscape:window-y="23"
     inkscape:window-maximized="0"
     inkscape:snap-grids="false">
    <inkscape:grid
       type="xygrid"
       id="grid2818"
       empspacing="5"
       visible="true"
       enabled="true"
       snapvisiblegridlinesonly="true" />
  </sodipodi:namedview>
  <metadata
     id="metadata7">
    <rdf:RDF>
      <cc:Work
         rdf:about="">
        <dc:format>image/svg+xml</dc:format>
        <dc:type
           rdf:resource="http://purl.org/dc/dcmitype/StillImage" />
        <dc:title />
      </cc:Work>
    </rdf:RDF>
  </metadata>
  <g
     inkscape:label="Layer 1"
     inkscape:groupmode="layer"
     id="layer1"
     transform="translate(0,-1020.3622)">
    <rect
       style="fill:#000000;fill-opacity:1;stroke:#ffffff;stroke-width:2;stroke-linecap:round;stroke-linejoin:round;stroke-miterlimit:4;stroke-opacity:1;stroke-dasharray:none;stroke-dashoffset:1.19999999999999996"
       id="rect2816"
       width="30"
       height="30"
       x="1"
       y="-15"
       transform="translate(0,1036.3622)"
       rx="2"
       ry="2" />
    <path
       style="fill:#ffffff;fill-opacity:1;stroke:#ffffff;stroke-width:1;stroke-linecap:round;stroke-linejoin:round;stroke-miterlimit:4;stroke-opacity:1;stroke-dasharray:none;stroke-dashoffset:1.2"
       d="m 8.0938722,25.658409 0.9178618,0.04172 -0.125163,-6.174706 1.543677,-0.04172 0.208604,6.216427 1.126466,-1e-6 -0.04172,-12.808343 c 0,0 2.211924,-0.576816 2.878749,-1.168188 0.666826,-0.591372 1.001303,-2.0026069 1.001303,-2.0026069 l 0.04172,-0.959583 c 0,0 -0.994003,1.7519479 -1.585398,2.2529339 -0.591395,0.500986 -2.419818,0.959582 -2.419818,0.959582 l -1.168187,-0.667535 c 0,0 1.437577,-1.3628919 1.376792,-2.336376 C 11.787976,7.9965291 11.184284,7.0397771 10.013038,7.0508474 8.8417913,7.0619177 8.0222123,7.9768191 7.9687093,9.220339 7.9152063,10.463859 9.26206,11.264668 9.26206,11.264668 l 0.2086049,0.917861 c 0,0 -2.6016197,1.475302 -3.3376793,2.252934 -0.7360595,0.777632 -2.2906831,3.823244 -1.8774445,4.088657 0.4132386,0.265413 0.6685585,-1.990997 1.6688396,-2.837027 1.000281,-0.846031 2.1694916,-0.959583 2.1694916,-0.959583 z"
       id="path3058"
       inkscape:connector-curvature="0"
       transform="translate(0,1020.3622)"
       sodipodi:nodetypes="ccccccczcczcczzzcczzzcc" />
    <path
       style="fill:#ffffff;fill-opacity:1;stroke:#ffffff;stroke-width:1;stroke-linecap:round;stroke-linejoin:round;stroke-miterlimit:4;stroke-opacity:1;stroke-dasharray:none;stroke-dashoffset:1.2"
       d="m 23.793534,1045.9993 -0.917862,0.042 0.125163,-6.1747 -1.543677,-0.042 -0.208604,6.2164 -1.126466,0 0.04172,-12.8084 c 0,0 -2.211924,-0.5768 -2.878749,-1.1682 -0.666826,-0.5913 -1.001303,-2.0026 -1.001303,-2.0026 l -0.04172,-0.9595 c 0,0 0.994003,1.7519 1.585398,2.2529 0.591395,0.501 2.419818,0.9596 2.419818,0.9596 l 1.168187,-0.6676 c 0,0 -1.437577,-1.3629 -1.376792,-2.3363 0.06078,-0.9735 0.664475,-1.9303 1.835721,-1.9192 1.171247,0.011 1.990826,0.926 2.044329,2.1695 0.0535,1.2435 -1.293351,2.0443 -1.293351,2.0443 l -0.208605,0.9179 c 0,0 2.60162,1.4753 3.337679,2.2529 0.73606,0.7776 2.290684,3.8233 1.877445,4.0887 -0.413239,0.2654 -0.668559,-1.991 -1.66884,-2.8371 -1.000281,-0.846 -2.169491,-0.9595 -2.169491,-0.9595 z"
       id="path3058-2"
       inkscape:connector-curvature="0"
       sodipodi:nodetypes="ccccccczcczcczzzcczzzcc" />
  </g>
</svg>
