<?xml version="1.0" encoding="UTF-8" standalone="no"?>
<!-- Created with Inkscape (http://www.inkscape.org/) -->

<svg
   xmlns:dc="http://purl.org/dc/elements/1.1/"
   xmlns:cc="http://creativecommons.org/ns#"
   xmlns:rdf="http://www.w3.org/1999/02/22-rdf-syntax-ns#"
   xmlns:svg="http://www.w3.org/2000/svg"
   xmlns="http://www.w3.org/2000/svg"
   xmlns:sodipodi="http://sodipodi.sourceforge.net/DTD/sodipodi-0.dtd"
   xmlns:inkscape="http://www.inkscape.org/namespaces/inkscape"
   width="32"
   height="32"
   id="svg2"
   version="1.1"
   inkscape:version="0.48.0 r9654"
   sodipodi:docname="att_available.svg"
   inkscape:export-filename="/home/harbaum/scratchbox/navi/gpxview/trunk/data/icons/32x32/att_available.png"
   inkscape:export-xdpi="90"
   inkscape:export-ydpi="90">
  <defs
     id="defs4">
    <inkscape:perspective
       sodipodi:type="inkscape:persp3d"
       inkscape:vp_x="0 : 526.18109 : 1"
       inkscape:vp_y="0 : 1000 : 0"
       inkscape:vp_z="744.09448 : 526.18109 : 1"
       inkscape:persp3d-origin="372.04724 : 350.78739 : 1"
       id="perspective10" />
    <inkscape:perspective
       id="perspective2861"
       inkscape:persp3d-origin="0.5 : 0.33333333 : 1"
       inkscape:vp_z="1 : 0.5 : 1"
       inkscape:vp_y="0 : 1000 : 0"
       inkscape:vp_x="0 : 0.5 : 1"
       sodipodi:type="inkscape:persp3d" />
  </defs>
  <sodipodi:namedview
     id="base"
     pagecolor="#000000"
     bordercolor="#666666"
     borderopacity="1.0"
     inkscape:pageopacity="0"
     inkscape:pageshadow="2"
     inkscape:zoom="13.9375"
     inkscape:cx="16"
     inkscape:cy="14.493274"
     inkscape:document-units="px"
     inkscape:current-layer="layer1"
     showgrid="true"
     objecttolerance="20"
     inkscape:window-width="938"
     inkscape:window-height="657"
     inkscape:window-x="42"
     inkscape:window-y="185"
     inkscape:window-maximized="0">
    <inkscape:grid
       type="xygrid"
       id="grid2818"
       empspacing="5"
       visible="true"
       enabled="true"
       snapvisiblegridlinesonly="true" />
  </sodipodi:namedview>
  <metadata
     id="metadata7">
    <rdf:RDF>
      <cc:Work
         rdf:about="">
        <dc:format>image/svg+xml</dc:format>
        <dc:type
           rdf:resource="http://purl.org/dc/dcmitype/StillImage" />
        <dc:title />
      </cc:Work>
    </rdf:RDF>
  </metadata>
  <g
     inkscape:label="Layer 1"
     inkscape:groupmode="layer"
     id="layer1"
     transform="translate(0,-1020.3622)">
    <rect
       style="fill:#000000;fill-opacity:1;stroke:#ffffff;stroke-width:2;stroke-linecap:round;stroke-linejoin:round;stroke-miterlimit:4;stroke-opacity:1;stroke-dasharray:none;stroke-dashoffset:1.19999999999999996"
       id="rect2816"
       width="30"
       height="30"
       x="1"
       y="-15"
       transform="translate(0,1036.3622)"
       rx="2"
       ry="2" />
    <path
       inkscape:connector-curvature="0"
       id="path2993"
       style="font-size:13.28999233px;font-style:normal;font-variant:normal;font-weight:normal;font-stretch:normal;text-align:start;line-height:125%;writing-mode:lr-tb;text-anchor:start;fill:#ffffff;fill-opacity:1;stroke:#ffffff;stroke-width:1.00000024;stroke-opacity:1;font-family:Bitstream Vera Sans Mono;-inkscape-font-specification:Bitstream Vera Sans Mono"
       d="m 5.5075222,1041.5864 3.4055823,0 0,1.442 -4.5027162,0 0,-1.442 c 0.6188946,-1.1141 1.1600144,-2.098 1.6233609,-2.9519 0.4633418,-0.8539 0.7827182,-1.4562 0.9581304,-1.8068 0.3309568,-0.6899 0.5543548,-1.2469 0.6701946,-1.671 0.1158323,-0.4298 0.1737504,-0.8681 0.1737543,-1.3148 -3.9e-6,-0.7069 -0.122459,-1.2611 -0.3673659,-1.6626 -0.2416046,-0.4015 -0.5742195,-0.6022 -0.9978456,-0.6022 -0.3011765,0 -0.6172434,0.093 -0.9482017,0.2799 -0.3309619,0.1866 -0.6817796,0.4694 -1.0524541,0.8482 l 0,-1.7304 c 0.3408881,-0.2771 0.6751578,-0.4863 1.0028101,-0.6277 0.3309582,-0.1414 0.656954,-0.212 0.977988,-0.2121 0.7247998,10e-5 1.3072896,0.3309 1.7474712,0.9925 0.4434818,0.656 0.665225,1.5184 0.6652304,2.5871 -5.4e-6,0.5429 -0.074475,1.0858 -0.2233987,1.6287 -0.1456269,0.5429 -0.3839182,1.1423 -0.7148741,1.7983 -0.1853421,0.3675 -0.4550745,0.8765 -0.8091983,1.5268 -0.3508211,0.6503 -0.8869765,1.623 -1.6084676,2.918" />
    <path
       inkscape:connector-curvature="0"
       id="path2995"
       style="font-size:13.28999233px;font-style:normal;font-variant:normal;font-weight:normal;font-stretch:normal;text-align:start;line-height:125%;writing-mode:lr-tb;text-anchor:start;fill:#ffffff;fill-opacity:1;stroke:#ffffff;stroke-width:1.00000024;stroke-opacity:1;font-family:Bitstream Vera Sans Mono;-inkscape-font-specification:Bitstream Vera Sans Mono"
       d="m 13.420786,1031.9248 -2.338236,6.6927 2.338236,0 0,-6.6927 m -0.163825,-1.5607 1.16167,0 0,8.2534 0.987918,0 0,1.3911 -0.987918,0 0,3.0198 -0.997845,0 0,-3.0198 -3.14247,0 0,-1.6201 2.978645,-8.0244" />
    <path
       inkscape:connector-curvature="0"
       id="path2997"
       style="font-size:13.28999233px;font-style:normal;font-variant:normal;font-weight:normal;font-stretch:normal;text-align:start;line-height:125%;writing-mode:lr-tb;text-anchor:start;fill:#ffffff;fill-opacity:1;stroke:#ffffff;stroke-width:1.00000024;stroke-opacity:1;font-family:Bitstream Vera Sans Mono;-inkscape-font-specification:Bitstream Vera Sans Mono"
       d="m 20.444951,1029.583 0.943238,0 -3.902024,14.276 -0.948202,0 3.906988,-14.276" />
    <path
       inkscape:connector-curvature="0"
       id="path2999"
       style="font-size:13.28999233px;font-style:normal;font-variant:normal;font-weight:normal;font-stretch:normal;text-align:start;line-height:125%;writing-mode:lr-tb;text-anchor:start;fill:#ffffff;fill-opacity:1;stroke:#ffffff;stroke-width:1.00000024;stroke-opacity:1;font-family:Bitstream Vera Sans Mono;-inkscape-font-specification:Bitstream Vera Sans Mono"
       d="m 23.053042,1030.3641 4.666542,0 0,0.7295 -2.650993,11.9348 -1.047489,0 2.581491,-11.2223 -3.549551,0 0,-1.442" />
  </g>
</svg>
