<?xml version="1.0" encoding="UTF-8" standalone="no"?>
<!-- Created with Inkscape (http://www.inkscape.org/) -->
<svg xmlns:rdf="http://www.w3.org/1999/02/22-rdf-syntax-ns#" xmlns="http://www.w3.org/2000/svg" height="32" width="32" version="1.0" xmlns:cc="http://creativecommons.org/ns#" xmlns:xlink="http://www.w3.org/1999/xlink" xmlns:dc="http://purl.org/dc/elements/1.1/">
<defs>
<linearGradient id="linearGradient3014" y2="26" gradientUnits="userSpaceOnUse" x2="23" gradientTransform="matrix(0.53333334,0,0,0.53333333,15.021437,15.139458)" y1="8" x1="8">
<stop stop-color="#f20000" offset="0"/>
<stop stop-color="#5e0000" offset="1"/>
</linearGradient>
</defs>
<metadata>
<rdf:RDF>
<cc:Work rdf:about="">
<dc:format>image/svg+xml</dc:format>
<dc:type rdf:resource="http://purl.org/dc/dcmitype/StillImage"/>
<dc:title/>
</cc:Work>
</rdf:RDF>
</metadata>
<path d="m22,16a6,6,0,1,1,-12,0,6,6,0,1,1,12,0z" transform="matrix(1.1666667,0,0,1.1666667,4.8881039,5.0061248)" fill="#FFF"/>
<path style="baseline-shift:baseline;block-progression:tb;color:#000000;direction:ltr;text-indent:0;text-align:start;enable-background:accumulate;text-transform:none;" fill="url(#linearGradient3014)" d="m23.555,15.673c-4.3993,0-8,3.6007-8,8s3.6007,8,8,8,8-3.6007,8-8-3.6007-8-8-8zm0,3.2c0.74167,0,1.4424,0.17202,2.0667,0.46667l-6.4,6.4c-0.29465-0.62427-0.46667-1.325-0.46667-2.0667,0-2.6699,2.1301-4.8,4.8-4.8zm4.3333,2.7333c0.29465,0.62427,0.46667,1.325,0.46667,2.0667,0,2.6699-2.1301,4.8-4.8,4.8-0.74167,0-1.4424-0.17202-2.0667-0.46667l6.4-6.4z"/>
</svg>
