<?xml version="1.0" encoding="UTF-8" standalone="no"?>
<!-- Created with Inkscape (http://www.inkscape.org/) -->
<svg xmlns:rdf="http://www.w3.org/1999/02/22-rdf-syntax-ns#" xmlns="http://www.w3.org/2000/svg" height="32" width="32" version="1.0" xmlns:cc="http://creativecommons.org/ns#" xmlns:xlink="http://www.w3.org/1999/xlink" xmlns:dc="http://purl.org/dc/elements/1.1/">
<defs>
<radialGradient id="radialGradient4676" gradientUnits="userSpaceOnUse" cy="17.765" cx="3" gradientTransform="matrix(1,0,0,1.1333333,16,-3.1333325)" r="7.5">
<stop stop-color="#ded7b5" offset="0"/>
<stop stop-color="#dfcf7d" offset="1"/>
</radialGradient>
</defs>
<metadata>
<rdf:RDF>
<cc:Work rdf:about="">
<dc:format>image/svg+xml</dc:format>
<dc:type rdf:resource="http://purl.org/dc/dcmitype/StillImage"/>
<dc:title/>
</cc:Work>
</rdf:RDF>
</metadata>
<path fill="url(#radialGradient4676)" d="M17,15v17h10l5-5v-12h-15z"/>
<path fill="#d0b539" d="M27,32c-0.268-0.501-1.01-3.458,0-5,4.399,1.173,3.822,0.237,5,0l-5,5z"/>
<path d="m18.017,16.781h2.3578c0.23274,0.62603-0.50529,0.34062-0.84824,0.49302,0.000135,0.57532,0.000022,1.1506,0.000059,1.726-0.49172,0.12138-0.77448-0.08381-0.6597-0.50305v-1.2834h-0.84989v-0.4325z" fill="#000"/>
<path d="m22.616,17.986v1.0136c-1.174,0.32114-0.15887-1.1248-0.93258-1.2977-0.77836,0.12857-0.04025,1.1689-0.59027,1.2977-0.58095,0.14689-0.37683-0.42778-0.40654-0.71839v-1.5942c0.53024-0.14408,0.69893,0.1421,0.61343,0.53894-0.15918,0.71021,0.50035-0.23431,0.96247,0.14096,0.26702,0.10703,0.40815,0.37139,0.35349,0.61907z" fill="#000"/>
<path d="m23.188,17.335c0.53023-0.14408,0.69893,0.1421,0.61343,0.53894v1.1257c-0.53023,0.14408-0.69893-0.1421-0.61343-0.53894v-1.1257zm0-0.648c0.42775-0.21194,0.9696,0.29959,0.40178,0.44696-0.48864,0.06496-0.4108-0.11158-0.40178-0.44696z" fill="#000"/>
<path d="m25.894,17.387c0.3635,0.75304-1.4652-0.10684-0.85568,0.56309,0.79096-0.19096,1.3665,0.7346,0.54498,1.0736-0.42888,0.05597-1.4437,0.12618-1.2726-0.47983,0.2565,0.29489,1.562,0.07592,0.82765-0.14795-1.0642,0.07575-1.062-1.3249,0.04561-1.1009,0.24001,0.0048,0.47746,0.04224,0.71001,0.09198" fill="#000"/>
<path d="m27.705,17.335c0.53023-0.14408,0.69893,0.1421,0.61343,0.53894v1.1257c-0.53023,0.14408-0.69893-0.1421-0.61343-0.53894v-1.1257zm0-0.648c0.42775-0.21194,0.9696,0.29959,0.40178,0.44696-0.48864,0.06496-0.4108-0.11158-0.40178-0.44696z" fill="#000"/>
<path d="m30.411,17.387c0.32038,0.71929-1.105-0.04547-0.97149,0.47954,0.5584,0.06719,1.5599,0.44783,0.86643,1.0018-0.37325,0.32542-1.8342,0.29956-1.3816-0.33691,0.20153,0.34478,1.4176,0.08782,0.77084-0.16818-1.0482,0.2501-1.1213-1.3079-0.05214-1.0687,0.25932,0.0012,0.51708,0.03723,0.76798,0.09245" fill="#000"/>
<path d="m19.155,22.056c-0.89683,0.02877,0.24838,0.8388,0.31131,0.13859,0.10716-0.21368-0.19008-0.11921-0.31131-0.13859zm0.93728-0.20065v0.94971c-0.55854,0.04881-0.71181-0.22849-1.2481,0.03561-0.89315,0.15374-0.89642-1.1311-0.0079-1.1007,0.32609,0.0575,0.93233-0.10112,0.30473-0.25694-0.35951-0.12506-1.1418,0.25678-0.71646-0.32586,0.58638-0.18722,1.7748-0.07351,1.6678,0.6982v0.000007z" fill="#000"/>
<path d="m23.816,21.791v1.0136c-1.1738,0.32114-0.15934-1.1247-0.93258-1.2977-0.77836,0.12856-0.04025,1.1689-0.59027,1.2977-0.58095,0.1469-0.37683-0.42778-0.40654-0.71839v-0.94621c0.56198-0.04172,0.72188,0.22189,1.27-0.0322,0.48361-0.10117,0.66588,0.3497,0.65938,0.68318z" fill="#000"/>
<path d="m25.301,21.481c-0.99064,0.08654-0.03188,1.6415,0.39234,0.67303,0.08244-0.25716-0.0032-0.67214-0.39234-0.67303zm0-0.38048c0.88837-0.11126,1.4072,0.95432,0.80782,1.4837-0.56802,0.51966-1.8563,0.26743-1.8687-0.52325-0.08493-0.52453,0.44457-1.0246,1.0609-0.96044z" fill="#000"/>
<path d="m27.47,20.668c-0.12875,0.41995,0.12295,0.54264,0.56736,0.48801,0.45484,0.62173-0.8788,0.09013-0.5684,0.6928-0.11312,0.41789,0.11685,0.59593,0.55486,0.62685,0.18996,0.63531-1.4039,0.36146-1.174-0.28014,0.04471-0.3564,0.06093-0.65392-0.32358-0.81352,0.0517-0.27332,0.51231-0.32782,0.36237-0.69964,0.18323-0.06892,0.3897,0.02677,0.58144-0.01435z" fill="#000"/>
<path d="m30.395,21.968c-0.08801,0.32249-0.70663,0.08254-1.0351,0.1516-0.74687-0.15215-0.14337,0.60495,0.351,0.33798,0.42984-0.27136,0.92925,0.13142,0.32925,0.33749-0.80716,0.23672-1.9341-0.15119-1.6871-1.0305,0.15112-0.88615,1.8491-0.88438,2.025-0.01743,0.0127,0.07315,0.0134,0.14728,0.017,0.22091zm-0.63056-0.17686c-0.0041-0.79613-1.3639,0.19302-0.25868-0.000004,0.08623,0.000003,0.17246-0.000006,0.25868,0.000004z" fill="#000"/>
<path d="m30.921,22.23c0.52828-0.22075,0.87156,0.32452,0.48456,0.59489-0.57077,0.11809-0.50439-0.25776-0.48456-0.59489z" fill="#000"/>
<path d="m19.259,25.375c1.0238-0.0312-0.4094-1.121-0.28333-0.23863-0.03976,0.20595,0.04748,0.28224,0.28333,0.23863zm-0.27759,0.39534v0.83973c-0.49172,0.12138-0.77448-0.08381-0.6597-0.50305v-1.7159c0.62816,0.06226,1.4997-0.19296,1.9221,0.336,0.31038,0.35647-0.28207,0.81444-0.34452,0.8825,0.35121,0.18495,0.6895,0.82345,0.6396,0.99274-0.87871,0.31844-0.7089-0.85219-1.4535-0.832-0.03467-0.000003-0.06935,0.000005-0.10401-0.000003z" fill="#000"/>
<path d="m22.911,25.773c-0.08801,0.32249-0.70663,0.08254-1.0351,0.1516-0.74687-0.15215-0.14337,0.60495,0.351,0.33798,0.42984-0.27136,0.92925,0.13142,0.32925,0.33749-0.80716,0.23672-1.9341-0.15118-1.6871-1.0305,0.15112-0.88615,1.8491-0.88438,2.025-0.01743,0.0127,0.07315,0.0134,0.14728,0.017,0.22091zm-0.63056-0.17686c-0.0041-0.79613-1.3639,0.19302-0.25868-0.000003,0.08622,0.000002,0.17246-0.000006,0.25868,0.000003z" fill="#000"/>
<path d="m24.234,25.861c-0.89683,0.02877,0.24838,0.8388,0.31131,0.13859,0.10717-0.21368-0.19008-0.11921-0.31131-0.13859zm0.93727-0.20065v0.94971c-0.55854,0.04881-0.71181-0.22849-1.2481,0.03561-0.89315,0.15374-0.89643-1.1311-0.0079-1.1007,0.32609,0.0575,0.93233-0.10112,0.30473-0.25694-0.3595-0.12506-1.1418,0.25678-0.71646-0.32586,0.58638-0.18721,1.7748-0.07351,1.6678,0.6982v-0.000002z" fill="#000"/>
<path d="m27.051,25.189v-0.89175c0.53004-0.14366,0.70364,0.14051,0.61686,0.53894v1.7737c-0.55955,0.0434-0.71074-0.21764-1.2501,0.03453-0.86639,0.06476-1.0584-1.1385-0.50401-1.5625,0.32153-0.27528,0.89117-0.21811,1.1372,0.1071zm-0.40438,1.0775c1.0252-0.12773-0.09217-1.6718-0.39959-0.59218-0.05167,0.2389,0.0547,0.59572,0.39959,0.59218z" fill="#000"/>
<path d="m18.295,28.75c0.53023-0.14408,0.69893,0.1421,0.61343,0.53894v1.1257c-0.53023,0.14408-0.69893-0.1421-0.61343-0.53894v-1.1257zm0-0.648c0.42775-0.21194,0.9696,0.29959,0.40178,0.44697-0.48864,0.06496-0.4108-0.11158-0.40178-0.44697z" fill="#000"/>
<path d="m20.171,28.277c-0.12875,0.41995,0.12295,0.54264,0.56736,0.48801,0.45484,0.62172-0.8788,0.09013-0.5684,0.6928-0.11312,0.41789,0.11685,0.59593,0.55486,0.62685,0.18996,0.63531-1.4039,0.36146-1.174-0.28014,0.04471-0.3564,0.06093-0.65392-0.32358-0.81351,0.0517-0.27332,0.51232-0.32782,0.36236-0.69965,0.18324-0.06892,0.38971,0.02677,0.58145-0.01435z" fill="#000"/>
<path d="m21.377,28.195c0.86692-0.24285,0.59992,0.60516,0.58946,1.0592,0.18479,0.57502-0.74208,0.53065-0.56618-0.01889-0.04466-0.34555-0.01483-0.69364-0.02328-1.0403zm-0.000006,1.6899c0.47311-0.17957,0.8846,0.22535,0.49628,0.54347-0.54866,0.10625-0.53029-0.1617-0.49628-0.54347z" fill="#000"/>
</svg>
