<?xml version="1.0" encoding="UTF-8" standalone="no"?>
<!-- Created with Inkscape (http://www.inkscape.org/) -->
<svg xmlns:rdf="http://www.w3.org/1999/02/22-rdf-syntax-ns#" xmlns="http://www.w3.org/2000/svg" height="32" width="32" version="1.0" xmlns:cc="http://creativecommons.org/ns#" xmlns:xlink="http://www.w3.org/1999/xlink" xmlns:dc="http://purl.org/dc/elements/1.1/">
<defs>
<linearGradient id="linearGradient3004" y2="5" gradientUnits="userSpaceOnUse" x2="29" y1="5" x1="18">
<stop stop-color="#ffd495" offset="0"/>
<stop stop-color="#ffb851" offset="0.5"/>
<stop stop-color="#ffe6c2" offset="1"/>
</linearGradient>
</defs>
<metadata>
<rdf:RDF>
<cc:Work rdf:about="">
<dc:format>image/svg+xml</dc:format>
<dc:type rdf:resource="http://purl.org/dc/dcmitype/StillImage"/>
<dc:title/>
</cc:Work>
</rdf:RDF>
</metadata>
<path stroke-linejoin="round" d="M17,13" stroke="#000" stroke-linecap="round" stroke-miterlimit="4" stroke-dasharray="none" stroke-width="1" fill="none"/>
<path stroke-linejoin="round" d="M16,16c1-5,2-10,3-15" stroke="#000" stroke-linecap="round" stroke-miterlimit="4" stroke-dasharray="none" stroke-width="1" fill="#ffd495"/>
<path fill="url(#linearGradient3004)" d="m18,7c1.751-0.028521,3.5117,0.30901,5.0847,1.0936,1.215,0.5968,2.557,0.9361,3.915,0.9064,0.667-2,1.333-4,2-6-1.791,0.0486-3.498-0.5632-5.148-1.1865-1.552-0.564-3.203-0.82564-4.852-0.8135-0.333,2-0.667,4-1,6z"/>
<path stroke-linejoin="round" d="M16,16c1-5,2-10,3-15" stroke="#000" stroke-linecap="round" stroke-miterlimit="4" stroke-dasharray="none" stroke-width="1" fill="#ffd495"/>
<path style="text-align:center;" fill="#8f3d01" d="M23.258,5.4851c-0.491-0.0077-0.982-0.0153-1.473-0.023,0.411-0.9793,1.652-1.0177,2.315-1.7329,0.313-0.7929-1.03-0.5077-1.457-0.3864-0.437,0.1357-0.928,0.3838-0.52-0.1754,0.153-0.369,0.333-0.7079,0.809-0.6423,0.87-0.1235,1.864-0.277,2.65,0.2072,0.541,0.573-0.173,1.3615-0.707,1.6514-0.515,0.3838-1.331,0.4643-1.617,1.1014m-1.705,0.424c0.49108,0.00765,0.98216,0.015307,1.4732,0.02296-0.18579,0.35841-0.37158,0.71683-0.55736,1.0752-0.49108-0.00765-0.98216-0.015307-1.4732-0.02296,0.18579-0.35841,0.37158-0.71683,0.55736-1.0752z"/>
</svg>
