<?xml version="1.0" encoding="UTF-8" standalone="no"?>
<!-- Created with Inkscape (http://www.inkscape.org/) -->
<svg xmlns:rdf="http://www.w3.org/1999/02/22-rdf-syntax-ns#" xmlns="http://www.w3.org/2000/svg" height="32" width="32" version="1.0" xmlns:cc="http://creativecommons.org/ns#" xmlns:xlink="http://www.w3.org/1999/xlink" xmlns:dc="http://purl.org/dc/elements/1.1/">
<defs>
<linearGradient id="linearGradient3308">
<stop stop-color="#FFF" offset="0"/>
<stop stop-color="#fffdf7" offset="0.43339"/>
<stop stop-color="#e0b304" offset="0.74691"/>
<stop stop-color="#ffeb3a" offset="1"/>
</linearGradient>
<radialGradient id="radialGradient3330" xlink:href="#linearGradient3308" gradientUnits="userSpaceOnUse" cy="15.5" cx="16" gradientTransform="matrix(0.997802,0,0,3.2285789,3.5167393e-2,-34.024455)" r="4.5"/>
<radialGradient id="radialGradient3339" xlink:href="#linearGradient3308" gradientUnits="userSpaceOnUse" cy="15.5" cx="16" gradientTransform="matrix(0,-0.997802,3.2285789,0,-34.042973,31.973624)" r="4.5"/>
<radialGradient id="radialGradient3362" xlink:href="#linearGradient3308" gradientUnits="userSpaceOnUse" cy="16" cx="16" r="14.5"/>
</defs>
<metadata>
<rdf:RDF>
<cc:Work rdf:about="">
<dc:format>image/svg+xml</dc:format>
<dc:type rdf:resource="http://purl.org/dc/dcmitype/StillImage"/>
<dc:title/>
</cc:Work>
</rdf:RDF>
</metadata>
<path stroke-linejoin="round" d="M30,16a14,14,0,1,1,-28,0,14,14,0,1,1,28,0z" stroke="#FFF" stroke-linecap="round" stroke-miterlimit="4" stroke-dasharray="none" stroke-width="3" fill="none"/>
<path stroke-linejoin="round" d="M30,16a14,14,0,1,1,-28,0,14,14,0,1,1,28,0z" stroke="#000" stroke-linecap="round" stroke-miterlimit="4" stroke-dasharray="none" stroke-width="1" fill="#17a7ff"/>
<path stroke-linejoin="round" d="M16,2c-2.203,0-4,6.2979-4,14.031,0,1.324,0.09,2.567,0.188,3.781l3.812-3.812v-14z" stroke="#000" stroke-linecap="round" stroke-miterlimit="4" stroke-dasharray="none" stroke-width="1" fill="url(#radialGradient3330)"/>
<path stroke-linejoin="round" d="M16,16c-1.403,1.403-2.351,2.351-3.812,3.812,1.223,0.1,2.477,0.188,3.812,0.188,7.733,0,14-1.797,14-4h-14z" stroke="#000" stroke-linecap="round" stroke-miterlimit="4" stroke-dasharray="none" stroke-width="1" fill="url(#radialGradient3339)"/>
<path stroke-linejoin="round" d="M16,2v14h14c0-7.728-6.272-14-14-14z" stroke="#000" stroke-linecap="round" stroke-miterlimit="4" stroke-dasharray="none" stroke-width="1" fill="url(#radialGradient3362)"/>
<rect height="0" width="3" y="7" x="33" fill="#dbf300"/>
<path d="M2,16c0.9366-1.555,2.1375-4.657,3-4,1.1036,0.674,1.4624-0.11,2,0,0.4718,0.162,0.8614,1.918,2,2,1.554-0.063,1.149-3.83,2-5,0.675-1-0.794-2.206-1-3-0.4523-0.8627-0.539-2,0-3l-4,3-2,3-2,5v2z" fill-rule="evenodd" fill="#388d2f"/>
<path d="M17.648,29.665l-0.275-5.356c-0.145-1.378,0.009-2.592,1.854-2.884,1.977,1.137,3.933,2.233,5.013,1.579,1.672-0.114,2.049-0.875,2.678-1.51l2.953-4.67-0.549,3.846-1.923,3.502-2.815,3.09-3.502,1.717-3.434,0.686z" fill-rule="evenodd" fill="#388d2f"/>
<path stroke-linejoin="round" d="M30,16a14,14,0,1,1,-28,0,14,14,0,1,1,28,0z" stroke="#000" stroke-linecap="round" stroke-miterlimit="4" stroke-dasharray="none" stroke-width="1" fill="none"/>
</svg>
