<?xml version="1.0" encoding="UTF-8" standalone="no"?>
<!-- Created with Inkscape (http://www.inkscape.org/) -->
<svg xmlns:rdf="http://www.w3.org/1999/02/22-rdf-syntax-ns#" xmlns="http://www.w3.org/2000/svg" height="32" width="32" version="1.0" xmlns:cc="http://creativecommons.org/ns#" xmlns:xlink="http://www.w3.org/1999/xlink" xmlns:dc="http://purl.org/dc/elements/1.1/">
<defs>
<linearGradient id="linearGradient3291" y2="22" gradientUnits="userSpaceOnUse" x2="22" y1="7" x1="13">
<stop stop-color="#596df0" offset="0"/>
<stop stop-color="#FFF" offset="0.23148"/>
<stop stop-color="#FFF" offset="0.75"/>
<stop stop-color="#a7a7a7" offset="1"/>
</linearGradient>
</defs>
<metadata>
<rdf:RDF>
<cc:Work rdf:about="">
<dc:format>image/svg+xml</dc:format>
<dc:type rdf:resource="http://purl.org/dc/dcmitype/StillImage"/>
<dc:title/>
</cc:Work>
</rdf:RDF>
</metadata>
<path stroke-linejoin="round" d="M16,5c-8.0107,0-14.5,4.4864-14.5,10,0,5.514,6.4893,9.969,14.5,9.969,1.298,0,2.553-0.124,3.75-0.344,0.444,3.111,0.75,5.344,0.75,5.344l4.469-7.157c3.365-1.829,5.531-4.633,5.531-7.812,0-5.5136-6.489-10-14.5-10z" stroke="#FFF" stroke-linecap="round" stroke-miterlimit="4" stroke-dasharray="none" stroke-width="3" fill="none"/>
<path stroke-linejoin="round" d="M16,5.0312c-8.0107,0-14.5,4.4865-14.5,9.9998,0,5.514,6.4893,9.969,14.5,9.969,1.298,0,2.553-0.123,3.75-0.344,0.444,3.111,0.75,5.344,0.75,5.344l4.469-7.156c3.365-1.83,5.531-4.634,5.531-7.813,0-5.5133-6.489-9.9998-14.5-9.9998z" stroke="#000" stroke-linecap="round" stroke-miterlimit="4" stroke-dasharray="none" stroke-width="0.99999994" fill="url(#linearGradient3291)"/>
<path d="m3.595,11.583,1.5874,0,0,0.91269c0.22836-0.38077,0.45811-0.65164,0.68925-0.81259,0.23393-0.16094,0.5152-0.24142,0.84381-0.24142,0.35367,0.000006,0.63355,0.08833,0.83964,0.26498,0.20608,0.17666,0.37456,0.43967,0.50545,0.78904,0.26734-0.40825,0.51102-0.685,0.73103-0.83026,0.22-0.14916,0.49152-0.22375,0.81457-0.22376,0.47621,0.000006,0.84798,0.20021,1.1153,0.60061,0.26734,0.39649,0.40101,1.0187,0.40102,1.8666v3.9275h-1.7043v-3.5624c0.0005-0.284-0.0385-0.494-0.1165-0.632-0.1142-0.216-0.2562-0.323-0.4261-0.323-0.20052,0.000005-0.36204,0.10207-0.48457,0.30619-0.12254,0.20413-0.18381,0.53192-0.1838,0.98335v3.2268h-1.7043v-3.4447c-0.0000035-0.27478-0.011143-0.46125-0.033418-0.55939-0.036207-0.15702-0.098866-0.28264-0.18798-0.37685-0.089119-0.09813-0.19355-0.1472-0.3133-0.14721-0.19494,0.000005-0.35507,0.10403-0.48039,0.31208-0.12532,0.20806-0.18798,0.54958-0.18798,1.0246v3.1915h-1.7043v-6.2534" fill="#a90000"/>
<path d="m17.063,15.305-3.4087,0c0.03063,0.38471,0.10443,0.67127,0.2214,0.8597,0.1643,0.27086,0.37874,0.4063,0.6433,0.4063,0.16709,0.000001,0.32583-0.05889,0.47621-0.17665,0.0919-0.07458,0.19076-0.20609,0.29659-0.39452l1.6751,0.21787c-0.25621,0.62809-0.56533,1.0795-0.92736,1.3543-0.36204,0.27086-0.88141,0.4063-1.5581,0.4063-0.58761,0-1.0499-0.11581-1.3869-0.34741-0.33697-0.23553-0.61685-0.6065-0.83964-1.1129-0.22-0.51032-0.33001-1.109-0.33-1.7959-0.000001-0.97746,0.2214-1.7685,0.66419-2.373,0.44558-0.60453,1.0596-0.9068,1.8422-0.9068,0.63494,0.000006,1.1362,0.13544,1.5038,0.4063,0.3676,0.27087,0.64748,0.66342,0.83964,1.1777,0.19215,0.51425,0.28823,1.1836,0.28823,2.0079v0.27086m-1.7294-1.1482c-0.03342-0.46321-0.12254-0.79492-0.26735-0.99513-0.14203-0.2002-0.33001-0.3003-0.56394-0.3003-0.27013,0.000005-0.48596,0.15114-0.64748,0.4534-0.10304,0.18843-0.16849,0.46911-0.19633,0.84203h1.6751" fill="#a90000"/>
<path d="m21.156,11.583,1.5916,0,0,5.906,0.0042,0.27675c-0.000005,0.39255-0.05988,0.76548-0.17962,1.1188-0.11697,0.35722-0.27431,0.64575-0.47204,0.86558-0.19494,0.21983-0.44419,0.37881-0.74774,0.47695-0.30077,0.09814-0.64609,0.14721-1.036,0.14721-0.89116-0.000003-1.5038-0.18843-1.838-0.56528-0.3314-0.37685-0.4971-0.88129-0.4971-1.5133-0.000001-0.07851,0.0028-0.1845,0.0083-0.31797l1.65,0.26498c0.04177,0.2159,0.10582,0.36508,0.19216,0.44751,0.12532,0.12169,0.28266,0.18254,0.47204,0.18254,0.24506-0.000001,0.42747-0.09225,0.54722-0.27675,0.12253-0.1845,0.1838-0.5064,0.1838-0.96569v-0.94802c-0.1671,0.27871-0.33419,0.48088-0.50128,0.6065-0.26178,0.19628-0.54444,0.29442-0.84799,0.29442-0.59318,0-1.0722-0.36508-1.437-1.0952-0.25899-0.51817-0.38849-1.2032-0.38849-2.055-0.000001-0.97353,0.16709-1.7155,0.50127-2.2258,0.33418-0.51032,0.77141-0.76548,1.3117-0.76548,0.34532,0.000006,0.62938,0.08244,0.85217,0.24731,0.22557,0.16488,0.43583,0.4377,0.63077,0.81848v-0.92447m-1.5999,3.0325c-0.000001,0.45144,0.06822,0.78708,0.20469,1.0069,0.13646,0.21591,0.31608,0.32386,0.53887,0.32386,0.21165,0.000001,0.38848-0.11188,0.53052-0.33563,0.14481-0.22768,0.21722-0.5692,0.21722-1.0246-0.000004-0.45536-0.0752-0.80277-0.22557-1.0422-0.15038-0.24338-0.33419-0.36507-0.5514-0.36508-0.21722,0.000004-0.39128,0.11188-0.52216,0.33563-0.1281,0.21984-0.19216,0.58688-0.19216,1.1011" fill="#a90000"/>
<path d="m25.334,13.609-1.625-0.24142c0.06127-0.4004,0.14899-0.71444,0.26317-0.94213,0.11696-0.2316,0.28406-0.4318,0.50128-0.60061,0.15595-0.12169,0.37039-0.2159,0.6433-0.28264,0.27292-0.06673,0.56811-0.1001,0.88559-0.1001,0.50963,0.000007,0.919,0.04122,1.2281,0.12366,0.30912,0.07852,0.56672,0.24535,0.7728,0.50051,0.14481,0.17666,0.25899,0.42789,0.34254,0.75371,0.08354,0.3219,0.12531,0.63006,0.12532,0.92447v2.7616c-0.000005,0.29442,0.01252,0.52602,0.0376,0.69482,0.02784,0.16488,0.08632,0.37685,0.17545,0.63594h-1.5957c-0.06405-0.16095-0.10583-0.28264-0.12532-0.36508-0.0195-0.08636-0.03899-0.21983-0.05848-0.40041-0.22279,0.30227-0.44419,0.51817-0.66419,0.64772-0.30077,0.17272-0.65027,0.25909-1.0485,0.25909-0.52913,0-0.93154-0.17272-1.2072-0.51817-0.27292-0.34545-0.40938-0.77137-0.40938-1.2778,0-0.47499,0.09886-0.86558,0.29659-1.1718,0.19772-0.30619,0.56254-0.53387,1.0945-0.68305,0.63773-0.18057,1.0513-0.30619,1.2407-0.37685,0.18937-0.07458,0.38988-0.17076,0.60153-0.28853-0.000003-0.29441-0.04317-0.5005-0.1295-0.61827-0.08633-0.11776-0.23811-0.17664-0.45533-0.17665-0.27849,0.000005-0.48735,0.06282-0.62659,0.18843-0.10861,0.09814-0.19634,0.28264-0.26317,0.5535m1.4746,1.2601c-0.23393,0.11776-0.47761,0.2218-0.73103,0.31208-0.34533,0.12955-0.56394,0.25713-0.65584,0.38274-0.09469,0.12954-0.14203,0.27675-0.14203,0.44163-0.000003,0.18843,0.04595,0.34349,0.13785,0.46518,0.09468,0.11776,0.23253,0.17665,0.41355,0.17665,0.18937,0.000001,0.36481-0.06477,0.52634-0.19431,0.1643-0.12954,0.27988-0.28656,0.34672-0.47107,0.06962-0.18842,0.10443-0.43181,0.10443-0.73015v-0.38274" fill="#a90000"/>
</svg>
