<?xml version="1.0" encoding="UTF-8" standalone="no"?>
<!-- Created with Inkscape (http://www.inkscape.org/) -->
<svg xmlns:rdf="http://www.w3.org/1999/02/22-rdf-syntax-ns#" xmlns="http://www.w3.org/2000/svg" height="32" width="32" version="1.0" xmlns:cc="http://creativecommons.org/ns#" xmlns:dc="http://purl.org/dc/elements/1.1/">
<defs></defs>
<metadata>
<rdf:RDF>
<cc:Work rdf:about="">
<dc:format>image/svg+xml</dc:format>
<dc:type rdf:resource="http://purl.org/dc/dcmitype/StillImage"/>
<dc:title/>
</cc:Work>
</rdf:RDF>
</metadata>
<path d="M26.879,7.7308c4.867,5.9472,3.76,14.937-2.159,19.741-6.27,5.089-15.717,3.913-20.75-2.328-5.3004-6.574-4.0595-16.452,2.4848-21.701,6.8318-5.4796,17.073-4.215,22.545,2.5573" fill-rule="evenodd" transform="matrix(1.090789,0,0,1.0455575,-0.6807174,-2.068799e-2)" fill="#FFF"/>
<path d="M29,16.5a12.5,12.5,0,1,1,-25,0,12.5,12.5,0,1,1,25,0z" transform="matrix(0.9908622,0,0,0.97415,0.3402546,0.6800981)" fill="#12508c"/>
<path fill-rule="evenodd" fill="#FFF" d="M12.231,16.266c9.908-4.87,9.908-4.87,9.908-4.87l-4.954,9.741-4.954-4.871z"/>
<path d="M17.556,0.86275l-0.216,2.8006c2.477,0.1359,4.898,0.9413,6.967,2.3441,0.806-1.0404,1.52-1.9627,1.92-2.4963-2.6-1.6943-5.621-2.5627-8.671-2.6484zm-1.703,0.03044c-0.454,0.03657-0.911,0.0817-1.362,0.15221l0.341,2.6789c0.428-0.0563,0.843-0.1048,1.269-0.1218l-0.062-2.7093c-0.062,0.00428-0.124-0.00497-0.186,0zm-2.972,0.48711c-2.608,0.6785-5.068,1.9888-7.091,3.9575-1.2536,1.2199-2.263,2.6129-3.0036,4.1096-0.004,0.0082,0.0041,0.0223,0,0.0305l2.0437,0.9741c0.982-1.7537,2.376-3.3257,4.1802-4.5358,1.4007-0.9395,2.9317-1.5818,4.4897-1.9483l-0.619-2.5876zm14.522,2.9833l-2.167,2.3136c0.315,0.257,0.605,0.5336,0.898,0.8219l2.384-2.1309c-0.363-0.349-0.725-0.6968-1.115-1.0046zm0.031,3.7748l-0.433,0.3045c0.218,0.2627,0.449,0.5381,0.65,0.8219,1.247,1.7702,1.995,3.7282,2.26,5.7232l0.682-0.061c-0.379-2.456-1.42-4.821-3.159-6.7886zm-25.298,2.8616c-0.1535,0.423-0.2881,0.846-0.4025,1.279l2.0436,0.548c0.1172-0.371,0.2514-0.737,0.4025-1.096l-2.0436-0.731zm-0.7432,3.014c-0.3866,2.696-0.0524,5.47,1.0219,8.006l1.6411-0.7c-0.8864-2.281-1.0665-4.712-0.6193-7.032l-2.0437-0.274zm28.611,2.313c0.013,0.446,0.003,0.896-0.031,1.34l0.774,0.122c0.027-0.486,0.024-0.977,0-1.462h-0.743zm-0.186,2.588c-0.421,2.414-1.537,4.706-3.282,6.575l0.712,0.701c1.832-2.056,2.959-4.53,3.345-7.124l-0.775-0.152zm-25.081,3.927l-1.4863,0.852c0.2577,0.442,0.5284,0.861,0.8361,1.279l1.3624-1.005c-0.2552-0.371-0.501-0.74-0.7122-1.126zm1.5173,2.161l-1.2386,1.127c0.2028,0.223,0.4,0.456,0.6193,0.669,1.7563,1.712,3.8702,2.896,6.1308,3.562l0.434-1.339c-2.2625-0.758-4.3385-2.122-5.9455-4.019zm19.508,1.249c-0.368,0.334-0.765,0.645-1.177,0.943l0.62,0.853c0.436-0.328,0.867-0.653,1.269-1.035l-0.712-0.761zm-2.198,1.613c-2.216,1.313-4.68,1.92-7.122,1.887v1.249c2.683-0.041,5.351-0.756,7.679-2.192l-0.557-0.944zm-9.847,1.553l-0.279,1.339c0.448,0.08,0.91,0.142,1.363,0.183l0.124-1.309c-0.406-0.051-0.809-0.128-1.208-0.213z" fill-opacity="0.99099097" fill-rule="evenodd" fill="#8e8e8e"/>
</svg>
