<?xml version="1.0" encoding="UTF-8" standalone="no"?>
<!-- Created with Inkscape (http://www.inkscape.org/) -->
<svg xmlns:rdf="http://www.w3.org/1999/02/22-rdf-syntax-ns#" xmlns="http://www.w3.org/2000/svg" height="32" width="32" version="1.0" xmlns:cc="http://creativecommons.org/ns#" xmlns:xlink="http://www.w3.org/1999/xlink" xmlns:dc="http://purl.org/dc/elements/1.1/">
<defs>
<linearGradient id="linearGradient3302">
<stop stop-color="#00F" offset="0"/>
<stop stop-color="#b0b0ff" offset="1"/>
</linearGradient>
<linearGradient id="linearGradient3308" y2="12.641" xlink:href="#linearGradient3302" gradientUnits="userSpaceOnUse" x2="24.342" y1="12.641" x1="6.6027"/>
<linearGradient id="linearGradient3316" y2="26.008" xlink:href="#linearGradient3302" gradientUnits="userSpaceOnUse" x2="16.982" y1="26.008" x1="10.808"/>
</defs>
<metadata>
<rdf:RDF>
<cc:Work rdf:about="">
<dc:format>image/svg+xml</dc:format>
<dc:type rdf:resource="http://purl.org/dc/dcmitype/StillImage"/>
<dc:title/>
</cc:Work>
</rdf:RDF>
</metadata>
<path stroke-linejoin="round" d="M16.518,26.008a2.6235,2.4939,0,1,1,-5.247,0,2.6235,2.4939,0,1,1,5.247,0z" transform="matrix(1.0960651,0,0,1.0620944,-0.5805498,-1.5270113)" stroke="#FFF" stroke-linecap="round" stroke-miterlimit="4" stroke-dasharray="none" stroke-width="2.78049116999999990" fill="none"/>
<path stroke-linejoin="round" d="M11.54,10.971c0.472,0.823,1.27,0.802,1.943,1.489,0.672,1.2,0.47,2.083-0.259,2.592-0.885,0.471-1.771,0.543-2.656,0.323-1.6823-0.331-3.0638-1.726-3.3684-3.368-0.1836-1.349-0.2841-3.3651,0.1943-4.5992,0.583-1.3669,1.6842-2.2594,2.9801-3.0446,1.158-0.6268,2.579-0.8595,4.081-0.9716,1.888-0.0564,3.466,0.2295,5.441,1.0364,1.563,0.7517,2.807,1.9541,3.368,2.915,0.7,1.0943,0.547,3.482,0.389,4.146-0.259,1.242-2.073,2.876-3.109,3.822-0.867,0.735-1.551,1.397-3.239,2.461-0.693,0.58-1.285,1.311-1.296,2.915,0.094,0.734-0.59,1.014-1.166,1.101-0.614,0.102-1.026-0.101-1.295-0.518-0.336-1.023-0.289-1.935,0.065-2.785,0.58-1.323,1.735-2.246,2.655-2.98,0.695-0.801,1.401-1.251,1.944-2.073,0.453-1.047,0.656-1.71,0.648-2.785-0.165-0.7678-0.356-1.7815-1.166-2.5267-0.369-0.5138-2.115-0.9544-3.498-0.7125-0.686,0.1561-1.735,0.3657-2.268,1.1012-0.336,0.3239-0.792,1.879-0.388,2.462z" stroke="#FFF" stroke-linecap="round" stroke-miterlimit="4" stroke-dasharray="none" stroke-width="3" fill="none"/>
<path stroke-linejoin="round" d="M16.518,26.008a2.6235,2.4939,0,1,1,-5.247,0,2.6235,2.4939,0,1,1,5.247,0z" transform="matrix(1.0960651,0,0,1.0620944,-0.5250823,-1.4854031)" stroke="#000" stroke-linecap="round" stroke-miterlimit="4" stroke-dasharray="none" stroke-width="0.92683039000000000" fill="url(#linearGradient3316)"/>
<path stroke-linejoin="miter" d="M11.595,11.012c0.472,0.824,1.271,0.802,1.943,1.49,0.673,1.199,0.471,2.082-0.259,2.591-0.885,0.471-1.77,0.543-2.656,0.324-1.6818-0.331-3.0633-1.727-3.3679-3.368-0.1837-1.35-0.2841-3.3655,0.1943-4.5996,0.583-1.3668,1.6842-2.2594,2.9796-3.0445,1.158-0.6269,2.58-0.8596,4.081-0.9717,1.889-0.0564,3.466,0.2295,5.441,1.0364,1.563,0.7517,2.808,1.9541,3.369,2.915,0.7,1.0943,0.547,3.4824,0.389,4.1454-0.26,1.243-2.073,2.876-3.11,3.822-0.866,0.735-1.551,1.398-3.239,2.462-0.693,0.58-1.285,1.311-1.295,2.915,0.093,0.734-0.591,1.014-1.166,1.101-0.615,0.101-1.026-0.102-1.296-0.518-0.335-1.023-0.289-1.935,0.065-2.786,0.581-1.323,1.736-2.246,2.656-2.979,0.694-0.801,1.4-1.251,1.943-2.073,0.453-1.047,0.657-1.71,0.648-2.786-0.165-0.7672-0.355-1.7809-1.166-2.5261-0.368-0.5138-2.115-0.9544-3.498-0.7125-0.685,0.1561-1.734,0.3657-2.267,1.1012-0.336,0.3239-0.793,1.8784-0.389,2.4614z" fill-rule="evenodd" stroke="#000" stroke-linecap="butt" stroke-width="1px" fill="url(#linearGradient3308)"/>
</svg>
