<?xml version="1.0" encoding="UTF-8" standalone="no"?>
<!-- Created with Inkscape (http://www.inkscape.org/) -->
<svg xmlns:rdf="http://www.w3.org/1999/02/22-rdf-syntax-ns#" xmlns="http://www.w3.org/2000/svg" height="32" width="32" version="1.0" xmlns:cc="http://creativecommons.org/ns#" xmlns:xlink="http://www.w3.org/1999/xlink" xmlns:dc="http://purl.org/dc/elements/1.1/">
<defs>
<radialGradient id="radialGradient3338" gradientUnits="userSpaceOnUse" cy="8.3048" cx="18.017" gradientTransform="matrix(1.181611,-2.1796496e-7,2.0119844e-7,1.2800786,-2.4096518,-3.2907531)" r="6.4996">
<stop stop-color="#656565" offset="0"/>
<stop stop-color="#FFF" offset="1"/>
</radialGradient>
<radialGradient id="radialGradient3354" gradientUnits="userSpaceOnUse" cy="11" cx="16" r="10.5">
<stop stop-color="#FFF" offset="0"/>
<stop stop-color="#FFF" offset="0.77778"/>
<stop stop-color="#111" offset="1"/>
</radialGradient>
<linearGradient id="linearGradient3364" y2="26" gradientUnits="userSpaceOnUse" x2="19" y1="23" x1="15">
<stop stop-color="#000" offset="0"/>
<stop stop-color="#c3c3c3" offset="1"/>
</linearGradient>
<linearGradient id="linearGradient3372" y2="27" gradientUnits="userSpaceOnUse" x2="20" y1="31" x1="15">
<stop stop-color="#FFF" offset="0"/>
<stop stop-color="#FFF" offset="0.1464"/>
<stop stop-color="#111" offset="1"/>
</linearGradient>
</defs>
<metadata>
<rdf:RDF>
<cc:Work rdf:about="">
<dc:format>image/svg+xml</dc:format>
<dc:type rdf:resource="http://purl.org/dc/dcmitype/StillImage"/>
<dc:title/>
</cc:Work>
</rdf:RDF>
</metadata>
<path stroke-linejoin="round" d="m13,20.8,0,6.2,6,0,0-6.2-6,0z" stroke="#FFF" stroke-linecap="round" stroke-miterlimit="4" stroke-dasharray="none" stroke-width="3" fill="none"/>
<path stroke-linejoin="round" d="M26,11a10,10,0,1,1,-20,0,10,10,0,1,1,20,0z" transform="translate(0,1)" stroke="#FFF" stroke-linecap="round" stroke-miterlimit="4" stroke-dasharray="none" stroke-width="3" fill="none"/>
<path stroke-linejoin="round" d="m8,30c5-3,5-3,5-3h6l5,3h-16z" stroke="#FFF" stroke-linecap="round" stroke-miterlimit="4" stroke-dasharray="none" stroke-width="3" fill="none"/>
<path stroke-linejoin="round" d="M13,20.8v6.2h6v-6.2h-6z" fill-rule="evenodd" stroke="#000" stroke-linecap="round" stroke-width="1px" fill="url(#linearGradient3364)"/>
<path stroke-linejoin="round" d="M26,11a10,10,0,1,1,-20,0,10,10,0,1,1,20,0z" transform="translate(0,1)" stroke="#000" stroke-linecap="round" stroke-miterlimit="4" stroke-dasharray="none" stroke-width="1" fill="url(#radialGradient3354)"/>
<path stroke-linejoin="round" d="M8,30c5-3,5-3,5-3h6l5,3h-16z" fill-rule="evenodd" stroke="#000" stroke-linecap="round" stroke-width="1px" fill="url(#linearGradient3372)"/>
<path stroke-linejoin="round" d="M22,11.5a6,6.5,0,1,1,-12,0,6,6.5,0,1,1,12,0z" transform="matrix(1.0416667,0,0,0.9615385,-0.666667,0.9423072)" stroke="#000" stroke-linecap="round" stroke-miterlimit="4" stroke-dasharray="none" stroke-width="0.99919968999999997" fill="url(#radialGradient3338)"/>
</svg>
