<?xml version="1.0" encoding="UTF-8" standalone="no"?>
<!-- Created with Inkscape (http://www.inkscape.org/) -->

<svg
   xmlns:dc="http://purl.org/dc/elements/1.1/"
   xmlns:cc="http://creativecommons.org/ns#"
   xmlns:rdf="http://www.w3.org/1999/02/22-rdf-syntax-ns#"
   xmlns:svg="http://www.w3.org/2000/svg"
   xmlns="http://www.w3.org/2000/svg"
   xmlns:sodipodi="http://sodipodi.sourceforge.net/DTD/sodipodi-0.dtd"
   xmlns:inkscape="http://www.inkscape.org/namespaces/inkscape"
   width="32"
   height="32"
   id="svg2"
   version="1.1"
   inkscape:version="0.48.2 r9819"
   sodipodi:docname="map_overlay_update.svg">
  <defs
     id="defs4" />
  <sodipodi:namedview
     id="base"
     pagecolor="#ffffff"
     bordercolor="#666666"
     borderopacity="1.0"
     inkscape:pageopacity="0.0"
     inkscape:pageshadow="2"
     inkscape:zoom="20.375"
     inkscape:cx="16"
     inkscape:cy="16"
     inkscape:document-units="px"
     inkscape:current-layer="layer1"
     showgrid="false"
     inkscape:window-width="1119"
     inkscape:window-height="789"
     inkscape:window-x="1371"
     inkscape:window-y="29"
     inkscape:window-maximized="0">
    <inkscape:grid
       type="xygrid"
       id="grid4099"
       empspacing="5"
       visible="true"
       enabled="true"
       snapvisiblegridlinesonly="true" />
  </sodipodi:namedview>
  <metadata
     id="metadata7">
    <rdf:RDF>
      <cc:Work
         rdf:about="">
        <dc:format>image/svg+xml</dc:format>
        <dc:type
           rdf:resource="http://purl.org/dc/dcmitype/StillImage" />
        <dc:title />
      </cc:Work>
    </rdf:RDF>
  </metadata>
  <g
     inkscape:label="Layer 1"
     inkscape:groupmode="layer"
     id="layer1"
     transform="translate(0,-1020.3622)">
    <rect
       style="fill:#000000;fill-opacity:0.25098040999999999;fill-rule:nonzero;stroke:#000000;stroke-width:1.00000059999999991;stroke-linecap:round;stroke-linejoin:round;stroke-opacity:0.5"
       id="rect4120"
       width="30"
       height="30.000034"
       x="1"
       y="1021.3622"
       rx="3.4411685"
       ry="2.9721196" />
    <path
       style="font-size:medium;font-style:normal;font-variant:normal;font-weight:normal;font-stretch:normal;text-indent:0;text-align:start;text-decoration:none;line-height:normal;letter-spacing:normal;word-spacing:normal;text-transform:none;direction:ltr;block-progression:tb;writing-mode:lr-tb;text-anchor:start;baseline-shift:baseline;color:#000000;fill:#ffffff;fill-opacity:1;stroke:none;stroke-width:3;marker:none;visibility:visible;display:inline;overflow:visible;enable-background:accumulate;font-family:Sans;-inkscape-font-specification:Sans"
       d="M 15.71875,4.78125 C 12.533666,4.8936602 9.5291614,6.287817 7.40625,8.75 L 5.59375,7.4375 C 5.495657,7.3655 5.3708471,7.33215 5.25,7.34375 5.0197799,7.37275 4.8252667,7.5809 4.8125,7.8125 L 4.25,14.625 c -0.04893,0.3475 0.3635495,0.66625 0.6875,0.53125 l 6.65625,-2.375 c 0.34005,-0.1222 0.417232,-0.6625 0.125,-0.875 L 9.8125,10.5 c 1.70986,-1.9240358 4.096442,-2.8342457 6.71875,-2.71875 3.386977,0.109 6.353447,2.75045 7.4375,5.96875 0.20626,0.790651 1.14523,1.301881 1.921259,1.046047 C 26.666037,14.540214 27.116884,13.570802 26.8125,12.8125 25.370748,8.5323 21.48591,4.95165 16.65625,4.78125 c -0.01054,-4e-4 -0.0207,3e-4 -0.03125,0 -0.30586,-0.012663 -0.603233,-0.010694 -0.90625,0 z"
       id="path3755"
       inkscape:connector-curvature="0"
       sodipodi:nodetypes="scccccccccccscccs"
       transform="translate(0,1020.3622)" />
    <path
       style="font-size:medium;font-style:normal;font-variant:normal;font-weight:normal;font-stretch:normal;text-indent:0;text-align:start;text-decoration:none;line-height:normal;letter-spacing:normal;word-spacing:normal;text-transform:none;direction:ltr;block-progression:tb;writing-mode:lr-tb;text-anchor:start;baseline-shift:baseline;color:#000000;fill:#ffffff;fill-opacity:1;stroke:none;stroke-width:3;marker:none;visibility:visible;display:inline;overflow:visible;enable-background:accumulate;font-family:Sans;-inkscape-font-specification:Sans"
       d="m 16.251135,1047.5728 c 3.1851,-0.1124 6.1896,-1.5065 8.3125,-3.9687 l 1.8125,1.3125 c 0.098,0.072 0.2229,0.1053 0.3437,0.094 0.2303,-0.029 0.4248,-0.2371 0.4375,-0.4687 l 0.5625,-6.8125 c 0.049,-0.3475 -0.3635,-0.6663 -0.6875,-0.5313 l -6.6562,2.375 c -0.3401,0.1222 -0.4172,0.6625 -0.125,0.875 l 1.9062,1.4063 c -1.7098,1.924 -4.0964,2.8342 -6.7187,2.7187 -3.387,-0.109 -6.3535038,-2.7504 -7.4375038,-5.9687 -0.2063,-0.7907 -1.1452,-1.3019 -1.9213,-1.0461 -0.776,0.2559 -1.2269,1.2253 -0.9225,1.9836 1.4418,4.2802 5.3266018,7.8608 10.1563038,8.0312 0.011,4e-4 0.021,-3e-4 0.031,0 0.3059,0.013 0.6033,0.011 0.9063,0 z"
       id="path3755-4"
       inkscape:connector-curvature="0"
       sodipodi:nodetypes="scccccccccccscccs" />
  </g>
</svg>
